# Blender v2.79 (sub 0) OBJ File: 'Holy Burger.blend'
# www.blender.org
mtllib Door_Cheese.mtl
o Plane.004_Plane.011
v -24.802183 -24.293299 0.041849
v 24.802183 -25.412766 0.043777
v -24.802183 22.348000 -0.038498
v 24.802183 25.502855 -0.043933
v -6.233034 23.529003 -0.040532
v -18.449911 22.752005 -0.039194
v -16.641729 18.592613 -0.032029
v -12.486131 16.896460 -0.029107
v -7.736882 19.695126 -0.033928
v 9.309541 13.990751 -0.024101
v 5.069136 11.785742 -0.020303
v 1.931238 6.782072 -0.011683
v 2.185664 -0.341800 0.000589
v 8.461459 -3.988543 0.006871
v 17.027082 -1.359496 0.002342
v 19.232086 7.290919 -0.012560
v 13.634760 13.481900 -0.023225
v -24.802183 -7.138381 0.012297
v -24.802183 -20.290583 0.034954
v -22.431259 -7.750113 0.013351
v -20.443138 -10.579364 0.018225
v -19.296141 -14.020351 0.024152
v -19.907873 -17.384865 0.029948
v -6.755651 -13.332151 0.022967
v -3.620535 -12.108690 0.020859
v -0.256013 -13.332150 0.022967
v 1.043916 -17.920130 0.030870
v -4.614593 -20.672915 0.035612
v -7.902646 -18.837723 0.032451
v -19.296141 7.007871 -0.012072
v -17.460947 9.990057 -0.017209
v -12.490632 9.913590 -0.017078
v -10.426040 5.478548 -0.009438
v -13.714091 -0.409354 0.000705
v -18.990271 1.655233 -0.002851
v 24.802183 -22.806849 0.039288
v 24.802183 -7.832211 0.013492
v 22.606247 -8.596869 0.014809
v 19.356422 -11.273189 0.019420
v 17.827095 -15.797444 0.027213
v 20.057362 -21.086357 0.036324
v 16.870876 22.094204 -0.038061
v 15.214102 20.628599 -0.035536
v 15.660154 18.016001 -0.031035
v 19.547197 15.913180 -0.027413
v 21.386221 19.905451 -0.034290
v 20.428900 22.199442 -0.038242
v 20.355543 25.220045 -0.043445
v 13.674258 23.446192 -0.040390
v 24.039030 7.069761 -0.012179
v 12.158037 21.041887 -0.036248
v 3.233394 -13.807866 0.023786
v 1.035218 -24.430340 0.042085
v -4.637474 -24.302320 0.041864
v -10.119082 -24.624666 0.042420
v -24.802183 -24.291845 0.885984
v 24.802183 -25.411312 0.887913
v -24.802183 22.349453 0.805637
v 24.802183 25.504309 0.800203
v -6.233034 23.530457 0.803603
v -18.449911 22.753458 0.804942
v -16.641729 18.594067 0.812107
v -12.486131 16.897913 0.815029
v -7.736882 19.696579 0.810207
v 9.309541 13.992206 0.820034
v 5.069136 11.787196 0.823833
v 1.931238 6.783526 0.832452
v 2.185664 -0.340346 0.844724
v 8.461459 -3.987089 0.851006
v 17.027082 -1.358041 0.846477
v 19.232086 7.292373 0.831576
v 13.634760 13.483355 0.820911
v -24.802183 -7.136926 0.856432
v -24.802183 -20.289129 0.879089
v -22.431259 -7.748659 0.857486
v -20.443138 -10.577909 0.862360
v -19.296141 -14.018897 0.868287
v -19.907873 -17.383411 0.874083
v -6.755651 -13.330697 0.867102
v -3.620535 -12.107236 0.864994
v -0.256013 -13.330695 0.867102
v 1.043916 -17.918676 0.875005
v -4.614593 -20.671461 0.879748
v -7.902646 -18.836269 0.876586
v -19.296141 7.009326 0.832063
v -17.460947 9.991511 0.826926
v -12.490632 9.915045 0.827058
v -10.426040 5.480002 0.834698
v -13.714091 -0.407899 0.844840
v -18.990271 1.656687 0.841284
v 24.802183 -22.805395 0.883424
v 24.802183 -7.830757 0.857627
v 22.606247 -8.595415 0.858945
v 19.356422 -11.271734 0.863555
v 17.827095 -15.795990 0.871349
v 20.057362 -21.084904 0.880460
v 16.870876 22.095657 0.806075
v 15.214102 20.630053 0.808599
v 15.660154 18.017454 0.813100
v 19.547197 15.914635 0.816722
v 21.386221 19.906904 0.809845
v 20.428900 22.200895 0.805893
v 20.355543 25.221498 0.800690
v 13.674258 23.447645 0.803746
v 24.039030 7.071216 0.831957
v 12.158037 21.043341 0.807887
v 3.233394 -13.806412 0.867921
v 1.035218 -24.428886 0.886220
v -4.637474 -24.300867 0.886000
v -10.119082 -24.623213 0.886555
vt 0.030197 0.158136
vt 0.068486 0.158136
vt 0.027027 0.298593
vt 0.450986 0.321381
vt 0.375325 0.443882
vt 0.357416 0.275907
vt 0.424214 0.275950
vt 0.096282 0.204955
vt 0.128467 0.210807
vt 0.135050 0.330768
vt 0.082384 0.319796
vt 0.440439 0.236198
vt 0.358148 0.228362
vt 0.480228 0.218902
vt 0.329621 0.210807
vt 0.487660 0.335767
vt 0.486868 0.526198
vt 0.463869 0.511694
vt 0.194299 0.158136
vt 0.476363 0.158136
vt 0.327461 0.413865
vt 0.314991 0.295657
vt 0.396418 0.484445
vt 0.434923 0.545195
vt 0.414808 0.582378
vt 0.332328 0.579363
vt 0.391550 0.525820
vt 0.452998 0.599970
vt 0.506542 0.632646
vt 0.503836 0.590110
vt 0.474942 0.590812
vt 0.473935 0.556776
vt 0.249579 0.558271
vt 0.330213 0.625346
vt 0.187662 0.632646
vt 0.188447 0.180816
vt 0.278418 0.213733
vt 0.459915 0.540928
vt 0.161383 0.199835
vt 0.258668 0.264204
vt 0.146753 0.360758
vt 0.259314 0.416299
vt 0.135050 0.392942
vt 0.224430 0.476333
vt 0.130499 0.426322
vt 0.180347 0.611640
vt 0.154746 0.580553
vt 0.111467 0.565924
vt 0.091162 0.405377
vt 0.060874 0.587258
vt 0.044416 0.632646
vt 0.019488 0.632646
vt 0.028886 0.405294
vt 0.064829 0.351249
vt 0.030110 0.351030
vt 0.531625 0.515296
vt 0.661310 0.524821
vt 0.535267 0.547260
vt 0.696489 0.924479
vt 0.644894 0.901537
vt 0.641764 0.833083
vt 0.798083 0.844778
vt 0.563055 0.584954
vt 0.679974 0.574807
vt 0.690379 0.624022
vt 0.569003 0.617727
vt 0.601425 0.914937
vt 0.598846 0.832319
vt 0.580017 0.941672
vt 0.585303 0.806516
vt 0.721467 0.945288
vt 0.865040 0.929814
vt 0.880025 0.953434
vt 0.528280 0.949115
vt 0.533264 0.698326
vt 0.660365 0.792988
vt 0.769785 0.801176
vt 0.837504 0.864422
vt 0.896736 0.900786
vt 0.876844 0.859209
vt 0.925452 0.801825
vt 0.931420 0.880169
vt 0.982413 0.965542
vt 0.949490 0.915842
vt 0.942282 0.963084
vt 0.941709 0.936938
vt 0.909574 0.937937
vt 0.901489 0.726288
vt 0.963657 0.685001
vt 0.969506 0.797397
vt 0.546785 0.683566
vt 0.586092 0.759684
vt 0.893501 0.925218
vt 0.561920 0.652511
vt 0.630407 0.741071
vt 0.718745 0.634680
vt 0.748773 0.623562
vt 0.771127 0.737437
vt 0.779574 0.618965
vt 0.826070 0.703325
vt 0.929406 0.644552
vt 0.952209 0.673061
vt 0.920463 0.598197
vt 0.760222 0.583593
vt 0.943052 0.542040
vt 0.980417 0.499652
vt 0.978671 0.519053
vt 0.759298 0.523828
vt 0.709084 0.558464
vt 0.708697 0.526150
vt 0.950081 0.547839
vt 0.928612 0.599012
vt 0.985045 0.522441
vt 0.526491 0.696009
vt 0.539646 0.678734
vt 0.666608 0.192073
vt 0.686803 0.238017
vt 0.668339 0.239101
vt 0.655725 0.206595
vt 0.554548 0.649912
vt 0.612666 0.181839
vt 0.618968 0.198073
vt 0.561102 0.617591
vt 0.567030 0.238070
vt 0.582733 0.238300
vt 0.556159 0.587743
vt 0.603506 0.301361
vt 0.609956 0.286059
vt 0.529192 0.549737
vt 0.653175 0.301361
vt 0.643208 0.287220
vt 0.078420 0.073972
vt 0.029887 0.073973
vt 0.029887 0.061799
vt 0.078420 0.061799
vt 0.523515 0.516505
vt 0.424970 0.073972
vt 0.373341 0.073972
vt 0.373341 0.061799
vt 0.424970 0.061799
vt 0.758713 0.516215
vt 0.979552 0.491838
vt 0.304572 0.073972
vt 0.304572 0.061799
vt 0.977407 0.796849
vt 0.989998 0.964973
vt 0.213825 0.073972
vt 0.213825 0.061799
vt 0.583267 0.947425
vt 0.529789 0.957709
vt 0.159522 0.073972
vt 0.159522 0.061799
vt 0.879242 0.960716
vt 0.719178 0.951599
vt 0.763659 0.036602
vt 0.832585 0.036602
vt 0.832585 0.048776
vt 0.763659 0.048776
vt 0.605402 0.921031
vt 0.644379 0.909996
vt 0.708629 0.518720
vt 0.426238 0.094641
vt 0.476736 0.094641
vt 0.476736 0.106815
vt 0.426238 0.106815
vt 0.692144 0.931547
vt 0.027723 0.094642
vt 0.099409 0.094642
vt 0.099409 0.106815
vt 0.027723 0.106815
vt 0.661664 0.517469
vt 0.169959 0.094641
vt 0.169959 0.106815
vt 0.678483 0.036602
vt 0.678483 0.048775
vt 0.267213 0.094641
vt 0.267213 0.106815
vt 0.575682 0.036602
vt 0.575682 0.048775
vt 0.532178 0.507854
vt 0.348920 0.094641
vt 0.348920 0.106815
vt 0.471006 0.036602
vt 0.471006 0.048775
vt 0.981935 0.973210
vt 0.941458 0.970687
vt 0.341792 0.036602
vt 0.341792 0.048775
vt 0.213053 0.036602
vt 0.213053 0.048775
vt 0.092691 0.036602
vt 0.092691 0.048776
vt 0.987537 0.500459
vt 0.029887 0.036602
vt 0.029887 0.048776
vt 0.957282 0.668796
vt 0.969567 0.682257
vt 0.936218 0.641477
vt 0.521039 0.948959
vn 0.0000 -0.0017 -1.0000
vn 0.0000 0.0017 1.0000
vn 0.9214 0.3886 -0.0007
vn 0.3409 0.9401 -0.0016
vn -0.2498 -0.9683 0.0017
vn 0.6626 -0.7490 0.0013
vn -0.8182 -0.5749 0.0010
vn 0.9857 0.1683 -0.0003
vn -0.9487 -0.3162 0.0005
vn 0.4758 0.8795 -0.0015
vn -0.9839 0.1789 -0.0003
vn -0.9083 0.4184 -0.0007
vn -0.5105 0.8599 -0.0015
vn -0.9229 -0.3851 0.0007
vn 0.3635 -0.9316 0.0016
vn -1.0000 0.0000 0.0000
vn 0.0296 -0.9996 0.0017
vn -0.3417 -0.9398 0.0016
vn -0.0413 -0.9991 0.0017
vn -0.9621 -0.2726 0.0005
vn 0.9991 -0.0414 0.0001
vn -0.4375 0.8992 -0.0015
vn -0.0635 0.9980 -0.0017
vn 0.4874 0.8732 -0.0015
vn 0.0042 1.0000 -0.0017
vn 0.4614 -0.8872 0.0015
vn 0.9171 0.3987 -0.0007
vn 0.3779 0.9258 -0.0016
vn -0.0226 -0.9997 0.0017
vn 0.8517 -0.5241 0.0009
vn -0.5077 0.8615 -0.0015
vn -0.0154 -0.9999 0.0017
vn -0.9309 0.3652 -0.0006
vn 0.0587 -0.9983 0.0017
vn -0.9066 -0.4220 0.0007
vn 0.8472 -0.5313 0.0009
vn -0.8731 0.4876 -0.0008
vn 0.9994 0.0357 -0.0001
vn 0.3644 0.9312 -0.0016
vn 0.5024 0.8646 -0.0015
vn 0.9984 0.0571 -0.0001
vn -0.2934 0.9560 -0.0016
vn -0.9690 0.2470 -0.0004
vn -0.2566 0.9665 -0.0017
vn -0.7418 -0.6706 0.0012
vn 1.0000 -0.0000 0.0000
vn -0.1168 -0.9931 0.0017
vn 0.3288 -0.9444 0.0016
vn 0.9987 0.0511 -0.0001
vn 0.6357 -0.7719 0.0013
vn 0.9473 -0.3202 0.0006
vn 0.9790 -0.2040 0.0004
usemtl OtherMaterial
s off
f 1/1/1 19/2/1 55/3/1
f 9/4/1 11/5/1 32/6/1 8/7/1
f 23/8/1 22/9/1 24/10/1 29/11/1
f 7/12/1 8/7/1 32/6/1 31/13/1
f 6/14/1 7/12/1 31/13/1 30/15/1
f 5/16/1 49/17/1 51/18/1
f 30/15/1 18/19/1 3/20/1 6/14/1
f 11/5/1 12/21/1 33/22/1 32/6/1
f 9/4/1 5/16/1 51/18/1 10/23/1 11/5/1
f 44/24/1 45/25/1 16/26/1 17/27/1
f 45/25/1 46/28/1 4/29/1 16/26/1
f 48/30/1 4/29/1 46/28/1 47/31/1
f 49/17/1 48/30/1 47/31/1 42/32/1
f 15/33/1 16/26/1 50/34/1 37/35/1
f 16/26/1 4/29/1 50/34/1
f 20/36/1 18/19/1 30/15/1 35/37/1
f 49/17/1 42/32/1 43/38/1 51/18/1
f 51/18/1 43/38/1 44/24/1 17/27/1 10/23/1
f 21/39/1 20/36/1 35/37/1 34/40/1
f 22/9/1 21/39/1 34/40/1
f 22/9/1 34/40/1 33/22/1 24/10/1
f 33/22/1 12/21/1 25/41/1 24/10/1
f 12/21/1 13/42/1 26/43/1 25/41/1
f 13/42/1 14/44/1 52/45/1 26/43/1
f 14/44/1 38/46/1 39/47/1
f 38/46/1 14/44/1 15/33/1 37/35/1
f 39/47/1 40/48/1 52/45/1 14/44/1
f 52/45/1 27/49/1 26/43/1
f 40/48/1 41/50/1 27/49/1 52/45/1
f 41/50/1 36/51/1 2/52/1 27/49/1
f 27/49/1 2/52/1 53/53/1
f 28/54/1 27/49/1 53/53/1 54/55/1
f 29/11/1 28/54/1 54/55/1 55/3/1
f 19/2/1 23/8/1 29/11/1 55/3/1
f 56/56/2 110/57/2 74/58/2
f 64/59/2 63/60/2 87/61/2 66/62/2
f 78/63/2 84/64/2 79/65/2 77/66/2
f 62/67/2 86/68/2 87/61/2 63/60/2
f 61/69/2 85/70/2 86/68/2 62/67/2
f 60/71/2 106/72/2 104/73/2
f 85/70/2 61/69/2 58/74/2 73/75/2
f 66/62/2 87/61/2 88/76/2 67/77/2
f 64/59/2 66/62/2 65/78/2 106/72/2 60/71/2
f 99/79/2 72/80/2 71/81/2 100/82/2
f 100/82/2 71/81/2 59/83/2 101/84/2
f 103/85/2 102/86/2 101/84/2 59/83/2
f 104/73/2 97/87/2 102/86/2 103/85/2
f 70/88/2 92/89/2 105/90/2 71/81/2
f 71/81/2 105/90/2 59/83/2
f 75/91/2 90/92/2 85/70/2 73/75/2
f 104/73/2 106/72/2 98/93/2 97/87/2
f 106/72/2 65/78/2 72/80/2 99/79/2 98/93/2
f 76/94/2 89/95/2 90/92/2 75/91/2
f 77/66/2 89/95/2 76/94/2
f 77/66/2 79/65/2 88/76/2 89/95/2
f 88/76/2 79/65/2 80/96/2 67/77/2
f 67/77/2 80/96/2 81/97/2 68/98/2
f 68/98/2 81/97/2 107/99/2 69/100/2
f 69/100/2 94/101/2 93/102/2
f 93/102/2 92/89/2 70/88/2 69/100/2
f 94/101/2 69/100/2 107/99/2 95/103/2
f 107/99/2 81/97/2 82/104/2
f 95/103/2 107/99/2 82/104/2 96/105/2
f 96/105/2 82/104/2 57/106/2 91/107/2
f 82/104/2 108/108/2 57/106/2
f 83/109/2 109/110/2 108/108/2 82/104/2
f 84/64/2 110/57/2 109/110/2 83/109/2
f 74/58/2 110/57/2 84/64/2 78/63/2
f 41/111/3 40/112/3 95/103/3 96/105/3
f 36/113/4 41/111/4 96/105/4 91/107/4
f 18/114/5 20/115/5 75/91/5 73/75/5
f 43/116/6 42/117/6 97/118/6 98/119/6
f 20/115/7 21/120/7 76/94/7 75/91/7
f 44/121/8 43/116/8 98/119/8 99/122/8
f 21/120/9 22/123/9 77/66/9 76/94/9
f 45/124/10 44/121/10 99/122/10 100/125/10
f 22/123/11 23/126/11 78/63/11 77/66/11
f 46/127/12 45/124/12 100/125/12 101/128/12
f 23/126/13 19/129/13 74/58/13 78/63/13
f 47/130/14 46/127/14 101/128/14 102/131/14
f 24/132/15 25/133/15 80/134/15 79/135/15
f 19/129/16 1/136/16 56/56/16 74/58/16
f 42/117/17 47/130/17 102/131/17 97/118/17
f 25/137/18 26/138/18 81/139/18 80/140/18
f 53/141/19 2/142/19 57/106/19 108/108/19
f 26/138/20 27/143/20 82/144/20 81/139/20
f 50/145/21 4/146/21 59/83/21 105/90/21
f 27/143/22 28/147/22 83/148/22 82/144/22
f 6/149/23 3/150/23 58/74/23 61/69/23
f 28/147/24 29/151/24 84/152/24 83/148/24
f 49/153/25 5/154/25 60/71/25 104/73/25
f 11/155/26 10/156/26 65/157/26 66/158/26
f 7/159/27 6/149/27 61/69/27 62/67/27
f 8/160/28 7/159/28 62/67/28 63/60/28
f 54/161/29 53/141/29 108/108/29 109/110/29
f 30/162/30 31/163/30 86/164/30 85/165/30
f 9/166/31 8/160/31 63/60/31 64/59/31
f 31/167/32 32/168/32 87/169/32 86/170/32
f 5/154/33 9/166/33 64/59/33 60/71/33
f 55/171/34 54/161/34 109/110/34 110/57/34
f 32/168/35 33/172/35 88/173/35 87/169/35
f 12/174/36 11/155/36 66/158/36 67/175/36
f 33/172/37 34/176/37 89/177/37 88/173/37
f 13/178/38 12/174/38 67/175/38 68/179/38
f 1/180/29 55/171/29 110/57/29 56/56/29
f 34/176/39 35/181/39 90/182/39 89/177/39
f 14/183/40 13/178/40 68/179/40 69/184/40
f 4/185/23 48/186/23 103/85/23 59/83/23
f 35/181/41 30/162/41 85/165/41 90/182/41
f 15/187/42 14/183/42 69/184/42 70/188/42
f 16/189/43 15/187/43 70/188/43 71/190/43
f 48/186/44 49/153/44 104/73/44 103/85/44
f 17/191/45 16/189/45 71/190/45 72/192/45
f 2/193/46 36/113/46 91/107/46 57/106/46
f 10/194/47 17/191/47 72/192/47 65/195/47
f 38/196/48 37/197/48 92/89/48 93/102/48
f 37/197/49 50/145/49 105/90/49 92/89/49
f 39/198/50 38/196/50 93/102/50 94/101/50
f 40/112/51 39/198/51 94/101/51 95/103/51
f 3/199/16 18/114/16 73/75/16 58/74/16
f 29/151/52 24/132/52 79/135/52 84/152/52
