# Blender v2.79 (sub 0) OBJ File: 'Holy Burger.blend'
# www.blender.org
mtllib Buns.mtl
o Sphere.001_Sphere.004
v 0.000000 0.657568 -0.883098
v 0.000000 0.485940 -1.282236
v 0.000000 0.254897 -1.632115
v 0.000000 -0.026683 -1.919287
v 0.000000 -0.347978 -2.132718
v 0.264695 0.763152 -0.364033
v 0.519218 0.657504 -0.714394
v 0.753788 0.485847 -1.037316
v 0.959390 0.254779 -1.320390
v 1.128123 -0.026821 -1.552738
v 1.253503 -0.348132 -1.725430
v 1.330712 -0.696805 -1.831831
v 1.356782 -1.059440 -1.867851
v 0.428286 0.763067 -0.138870
v 0.840113 0.657337 -0.272720
v 1.219654 0.485605 -0.396106
v 1.552325 0.254470 -0.504285
v 1.825341 -0.027185 -0.593099
v 2.028210 -0.348535 -0.659137
v 2.153136 -0.697233 -0.699860
v 2.195319 -1.059877 -0.713704
v 0.428286 0.762962 0.139448
v 0.840113 0.657130 0.273218
v 1.219654 0.485305 0.396474
v 1.552325 0.254088 0.504477
v 1.825341 -0.027634 0.593079
v 2.028210 -0.349034 0.658873
v 2.153136 -0.697763 0.699332
v 2.195319 -1.060417 0.712901
v 0.264695 0.762877 0.364611
v 0.519218 0.656963 0.714891
v 0.753788 0.485062 1.037684
v 0.959390 0.253779 1.320583
v 1.128123 -0.027997 1.552718
v 1.253503 -0.349438 1.725167
v 1.330712 -0.698191 1.831303
v 1.356782 -1.060854 1.867049
v 0.000000 0.762844 0.450616
v 0.000000 0.656900 0.883596
v 0.000000 0.484969 1.282604
v 0.000000 0.253662 1.632308
v 0.000000 -0.028135 1.919267
v 0.000000 -0.349592 2.132454
v 0.000000 -0.698355 2.263678
v 0.000000 -1.061021 2.307894
v -0.000000 0.798733 0.000303
v -0.264695 0.762877 0.364611
v -0.519218 0.656963 0.714891
v -0.753788 0.485062 1.037684
v -0.959390 0.253779 1.320583
v -1.128123 -0.027997 1.552718
v -1.253502 -0.349438 1.725167
v -1.330711 -0.698191 1.831303
v -1.356781 -1.060854 1.867049
v -0.428286 0.762962 0.139448
v -0.840113 0.657131 0.273218
v -1.219654 0.485305 0.396474
v -1.552325 0.254088 0.504478
v -1.825341 -0.027634 0.593079
v -2.028210 -0.349034 0.658874
v -2.153136 -0.697762 0.699333
v -2.195318 -1.060417 0.712902
v -0.428286 0.763067 -0.138870
v -0.840113 0.657337 -0.272720
v -1.219654 0.485605 -0.396106
v -1.552325 0.254470 -0.504285
v -1.825341 -0.027185 -0.593099
v -2.028210 -0.348535 -0.659137
v -2.153136 -0.697233 -0.699860
v -2.195319 -1.059877 -0.713703
v -0.264695 0.763152 -0.364033
v -0.519218 0.657504 -0.714394
v -0.753788 0.485847 -1.037316
v -0.959390 0.254779 -1.320390
v -1.128123 -0.026821 -1.552738
v -1.253503 -0.348132 -1.725430
v -1.330711 -0.696805 -1.831831
v -1.356782 -1.059440 -1.867851
v 0.000000 -1.060147 -0.000401
v -0.000000 0.763185 -0.450037
v -0.000000 -0.696641 -2.264205
v -0.000000 -1.059273 -2.308696
vt 0.319784 0.499821
vt 0.312535 0.459949
vt 0.401878 0.427759
vt 0.420516 0.456635
vt 0.330160 0.536561
vt 0.439416 0.483956
vt 0.343287 0.570667
vt 0.458889 0.510785
vt 0.358546 0.602208
vt 0.479382 0.538046
vt 0.320193 0.320320
vt 0.339421 0.272548
vt 0.350145 0.319965
vt 0.310878 0.369748
vt 0.365752 0.360841
vt 0.309124 0.416607
vt 0.383480 0.396248
vt 0.433602 0.351557
vt 0.461468 0.370198
vt 0.488410 0.387556
vt 0.515137 0.404404
vt 0.542554 0.421445
vt 0.571682 0.439227
vt 0.372908 0.305432
vt 0.404225 0.330584
vt 0.581536 0.307520
vt 0.615506 0.311176
vt 0.384249 0.282772
vt 0.422054 0.288737
vt 0.456171 0.293153
vt 0.488140 0.296927
vt 0.519012 0.300448
vt 0.549767 0.303934
vt 0.449003 0.233045
vt 0.478534 0.221644
vt 0.507232 0.210684
vt 0.536022 0.199831
vt 0.565948 0.188647
vt 0.598056 0.176529
vt 0.382629 0.258376
vt 0.417605 0.245189
vt 0.497267 0.089937
vt 0.520325 0.064142
vt 0.369164 0.238414
vt 0.392915 0.209837
vt 0.414506 0.184169
vt 0.435082 0.160155
vt 0.455313 0.136975
vt 0.475808 0.113868
vt 0.367275 0.126414
vt 0.374251 0.096047
vt 0.381607 0.065645
vt 0.389516 0.034073
vt 0.398037 0.000100
vt 0.347454 0.227923
vt 0.353995 0.191000
vt 0.360553 0.157716
vt 0.322990 0.229873
vt 0.309974 0.193711
vt 0.299306 0.160508
vt 0.290085 0.128931
vt 0.281772 0.098077
vt 0.273952 0.067051
vt 0.266208 0.034764
vt 0.257991 0.000100
vt 0.198012 0.144309
vt 0.176180 0.119278
vt 0.154138 0.093108
vt 0.130841 0.065084
vt 0.302205 0.244554
vt 0.271428 0.218722
vt 0.244708 0.193612
vt 0.220566 0.168921
vt 0.291498 0.269306
vt 0.248757 0.262582
vt 0.926525 0.365489
vt 0.807803 0.404065
vt 0.807803 0.202082
vt 0.209873 0.252928
vt 0.689081 0.365489
vt 0.615707 0.264498
vt 0.174011 0.241289
vt 0.615707 0.139666
vt 0.140346 0.228201
vt 0.807803 0.000100
vt 0.926526 0.038676
vt 0.107948 0.213890
vt 0.689081 0.038675
vt 0.075673 0.198358
vt 0.041957 0.181492
vt 0.999900 0.264499
vt 0.119600 0.343417
vt 0.078310 0.342254
vt 0.999900 0.139667
vt 0.038593 0.336984
vt 0.000100 0.327908
vt 0.296326 0.298107
vt 0.251953 0.318000
vt 0.206912 0.331850
vt 0.162552 0.340114
vn 0.2219 0.6962 -0.6827
vn 0.2613 0.5341 -0.8040
vn 0.2909 0.3376 -0.8952
vn 0.3069 0.1159 -0.9446
vn 0.0257 0.9966 -0.0787
vn 0.0769 0.9686 -0.2362
vn 0.1274 0.9112 -0.3918
vn 0.1763 0.8214 -0.5424
vn 0.4617 0.8213 -0.3351
vn 0.5809 0.6961 -0.4218
vn 0.6841 0.5340 -0.4968
vn 0.7616 0.3375 -0.5532
vn 0.8036 0.1158 -0.5838
vn 0.0672 0.9966 -0.0485
vn 0.2013 0.9686 -0.1459
vn 0.3336 0.9111 -0.2420
vn 0.9933 0.1155 0.0000
vn 0.0831 0.9965 0.0004
vn 0.2488 0.9686 0.0004
vn 0.4123 0.9110 0.0003
vn 0.5707 0.8212 0.0003
vn 0.7181 0.6960 0.0003
vn 0.8456 0.5338 0.0002
vn 0.9414 0.3373 0.0001
vn 0.4617 0.8211 0.3357
vn 0.5809 0.6958 0.4223
vn 0.6841 0.5336 0.4972
vn 0.7616 0.3371 0.5535
vn 0.8036 0.1153 0.5839
vn 0.0672 0.9965 0.0492
vn 0.2013 0.9685 0.1466
vn 0.3336 0.9109 0.2427
vn 0.3069 0.1152 0.9447
vn 0.0257 0.9965 0.0794
vn 0.0769 0.9685 0.2370
vn 0.1274 0.9109 0.3925
vn 0.1763 0.8210 0.5430
vn 0.2219 0.6957 0.6832
vn 0.2613 0.5335 0.8044
vn 0.2909 0.3369 0.8955
vn -0.2219 0.6957 0.6832
vn -0.2613 0.5335 0.8044
vn -0.2909 0.3369 0.8955
vn -0.3069 0.1152 0.9447
vn -0.0257 0.9965 0.0794
vn -0.0769 0.9685 0.2370
vn -0.1274 0.9109 0.3925
vn -0.1763 0.8210 0.5430
vn -0.2013 0.9685 0.1466
vn -0.3336 0.9109 0.2427
vn -0.4617 0.8211 0.3357
vn -0.5809 0.6958 0.4223
vn -0.6841 0.5336 0.4972
vn -0.7616 0.3371 0.5535
vn -0.8036 0.1153 0.5839
vn -0.0672 0.9965 0.0492
vn -0.8456 0.5338 0.0002
vn -0.9414 0.3373 0.0001
vn -0.9933 0.1155 0.0000
vn -0.0831 0.9965 0.0004
vn -0.2488 0.9686 0.0004
vn -0.4123 0.9110 0.0003
vn -0.5707 0.8212 0.0003
vn -0.7181 0.6960 0.0003
vn -0.2013 0.9686 -0.1459
vn 0.0000 -1.0000 -0.0004
vn -0.3336 0.9111 -0.2420
vn -0.4617 0.8213 -0.3351
vn -0.5809 0.6961 -0.4218
vn -0.6841 0.5340 -0.4968
vn -0.7616 0.3375 -0.5532
vn -0.8036 0.1158 -0.5838
vn -0.0672 0.9966 -0.0485
vn -0.2613 0.5341 -0.8040
vn -0.2909 0.3376 -0.8952
vn -0.3069 0.1159 -0.9446
vn -0.0257 0.9966 -0.0787
vn -0.0769 0.9686 -0.2362
vn -0.1274 0.9112 -0.3918
vn -0.1763 0.8214 -0.5424
vn -0.2219 0.6962 -0.6827
usemtl OtherMaterial
s off
f 4/1/1 3/2/1 9/3/1 10/4/1
f 5/5/2 4/1/2 10/4/2 11/6/2
f 81/7/3 5/5/3 11/6/3 12/8/3
f 82/9/4 81/7/4 12/8/4 13/10/4
f 80/11/5 46/12/5 6/13/5
f 1/14/6 80/11/6 6/13/6 7/15/6
f 2/16/7 1/14/7 7/15/7 8/17/7
f 3/2/8 2/16/8 8/17/8 9/3/8
f 9/3/9 8/17/9 16/18/9 17/19/9
f 10/4/10 9/3/10 17/19/10 18/20/10
f 11/6/11 10/4/11 18/20/11 19/21/11
f 12/8/12 11/6/12 19/21/12 20/22/12
f 13/10/13 12/8/13 20/22/13 21/23/13
f 6/13/14 46/12/14 14/24/14
f 7/15/15 6/13/15 14/24/15 15/25/15
f 8/17/16 7/15/16 15/25/16 16/18/16
f 21/23/17 20/22/17 28/26/17 29/27/17
f 14/24/18 46/12/18 22/28/18
f 15/25/19 14/24/19 22/28/19 23/29/19
f 16/18/20 15/25/20 23/29/20 24/30/20
f 17/19/21 16/18/21 24/30/21 25/31/21
f 18/20/22 17/19/22 25/31/22 26/32/22
f 19/21/23 18/20/23 26/32/23 27/33/23
f 20/22/24 19/21/24 27/33/24 28/26/24
f 25/31/25 24/30/25 32/34/25 33/35/25
f 26/32/26 25/31/26 33/35/26 34/36/26
f 27/33/27 26/32/27 34/36/27 35/37/27
f 28/26/28 27/33/28 35/37/28 36/38/28
f 29/27/29 28/26/29 36/38/29 37/39/29
f 22/28/30 46/12/30 30/40/30
f 23/29/31 22/28/31 30/40/31 31/41/31
f 24/30/32 23/29/32 31/41/32 32/34/32
f 37/39/33 36/38/33 44/42/33 45/43/33
f 30/40/34 46/12/34 38/44/34
f 31/41/35 30/40/35 38/44/35 39/45/35
f 32/34/36 31/41/36 39/45/36 40/46/36
f 33/35/37 32/34/37 40/46/37 41/47/37
f 34/36/38 33/35/38 41/47/38 42/48/38
f 35/37/39 34/36/39 42/48/39 43/49/39
f 36/38/40 35/37/40 43/49/40 44/42/40
f 42/48/41 41/47/41 50/50/41 51/51/41
f 43/49/42 42/48/42 51/51/42 52/52/42
f 44/42/43 43/49/43 52/52/43 53/53/43
f 45/43/44 44/42/44 53/53/44 54/54/44
f 38/44/45 46/12/45 47/55/45
f 39/45/46 38/44/46 47/55/46 48/56/46
f 40/46/47 39/45/47 48/56/47 49/57/47
f 41/47/48 40/46/48 49/57/48 50/50/48
f 48/56/49 47/55/49 55/58/49 56/59/49
f 49/57/50 48/56/50 56/59/50 57/60/50
f 50/50/51 49/57/51 57/60/51 58/61/51
f 51/51/52 50/50/52 58/61/52 59/62/52
f 52/52/53 51/51/53 59/62/53 60/63/53
f 53/53/54 52/52/54 60/63/54 61/64/54
f 54/54/55 53/53/55 61/64/55 62/65/55
f 47/55/56 46/12/56 55/58/56
f 60/63/57 59/62/57 67/66/57 68/67/57
f 61/64/58 60/63/58 68/67/58 69/68/58
f 62/65/59 61/64/59 69/68/59 70/69/59
f 55/58/60 46/12/60 63/70/60
f 56/59/61 55/58/61 63/70/61 64/71/61
f 57/60/62 56/59/62 64/71/62 65/72/62
f 58/61/63 57/60/63 65/72/63 66/73/63
f 59/62/64 58/61/64 66/73/64 67/66/64
f 64/71/65 63/70/65 71/74/65 72/75/65
f 37/76/66 45/77/66 79/78/66
f 65/72/67 64/71/67 72/75/67 73/79/67
f 54/80/66 62/81/66 79/78/66
f 66/73/68 65/72/68 73/79/68 74/82/68
f 62/81/66 70/83/66 79/78/66
f 67/66/69 66/73/69 74/82/69 75/84/69
f 82/85/66 13/86/66 79/78/66
f 68/67/70 67/66/70 75/84/70 76/87/70
f 70/83/66 78/88/66 79/78/66
f 69/68/71 68/67/71 76/87/71 77/89/71
f 45/77/66 54/80/66 79/78/66
f 70/69/72 69/68/72 77/89/72 78/90/72
f 63/70/73 46/12/73 71/74/73
f 29/91/66 37/76/66 79/78/66
f 76/87/74 75/84/74 4/92/74 5/93/74
f 21/94/66 29/91/66 79/78/66
f 77/89/75 76/87/75 5/93/75 81/95/75
f 78/88/66 82/85/66 79/78/66
f 78/90/76 77/89/76 81/95/76 82/96/76
f 71/74/77 46/12/77 80/97/77
f 72/75/78 71/74/78 80/97/78 1/98/78
f 73/79/79 72/75/79 1/98/79 2/99/79
f 13/86/66 21/94/66 79/78/66
f 74/82/80 73/79/80 2/99/80 3/100/80
f 75/84/81 74/82/81 3/100/81 4/92/81
