# Blender v2.79 (sub 0) OBJ File: 'Holy Burger.blend'
# www.blender.org
mtllib Wall.mtl
o Cube.001_Cube.021
v -47.978748 -43.718330 1.519393
v -47.978748 63.839592 1.519393
v -47.978748 -43.718330 -1.519393
v -47.978748 63.839592 -1.519393
v 47.978748 -43.718330 1.519393
v 47.978748 63.839592 1.519393
v 47.978748 -43.718330 -1.519393
v 47.978748 63.839592 -1.519393
v -47.978745 -2.776725 2.128947
v -47.978745 1.472237 2.128947
v -47.978745 -2.776725 -0.909838
v -47.978745 1.472237 -0.909838
v 47.978745 -2.776725 2.128947
v 47.978745 1.472237 2.128947
v 47.978745 -2.776725 -0.909838
v 47.978745 1.472237 -0.909838
v -47.978741 0.544231 2.128947
v -47.978745 0.036777 -0.909838
v 47.978745 0.036777 -0.909838
v 47.978741 0.544231 2.128947
v -47.978745 -1.369974 -0.909838
v 47.978745 -1.369974 -0.909838
v 47.978741 -1.877428 2.128947
v -47.978741 -1.877429 2.128947
v -47.978737 -1.643069 2.737540
v -47.978737 0.309871 2.737540
v 47.978737 0.309871 2.737540
v 47.978737 -1.643069 2.737540
v -47.978741 -0.666599 2.128947
v -47.978745 -0.666599 -0.909838
v 47.978745 -0.666599 -0.909838
v 47.978741 -0.666599 2.128947
v -47.978737 -0.666599 3.238300
v 47.978737 -0.666599 3.238300
vt 0.041946 0.257720
vt 0.274946 0.257720
vt 0.274946 0.420910
vt 0.041946 0.420910
vt 0.274946 0.653910
vt 0.482816 0.420910
vt 0.482816 0.653910
vt 0.715815 0.420910
vt 0.482816 0.257720
vt 0.715815 0.257720
vt 0.482816 0.024721
vt 0.274946 0.024721
vt 0.482816 0.817100
vt 0.274946 0.817100
vt 0.812686 0.174327
vt 0.774780 0.174338
vt 0.774837 0.036693
vt 0.816210 0.036679
vt 0.704186 0.029523
vt 0.745565 0.029544
vt 0.739633 0.167179
vt 0.701731 0.167160
vt 0.883237 0.763834
vt 0.883205 0.767845
vt 0.653401 0.767845
vt 0.653432 0.763834
vt 0.653465 0.447500
vt 0.883269 0.447500
vt 0.883269 0.627909
vt 0.653465 0.627909
vt 0.883205 0.948254
vt 0.653401 0.948254
vt 0.663806 0.167148
vt 0.693771 0.197117
vt 0.662909 0.221657
vt 0.666381 0.029501
vt 0.850573 0.174320
vt 0.854019 0.036668
vt 0.926401 0.174353
vt 0.888499 0.174333
vt 0.891825 0.036691
vt 0.932363 0.036713
vt 0.588021 0.029527
vt 0.628574 0.029513
vt 0.625920 0.167157
vt 0.588017 0.167168
vt 0.883237 0.631920
vt 0.653433 0.631920
vt 0.883237 0.697877
vt 0.883237 0.727699
vt 0.653433 0.727698
vt 0.653433 0.697877
vt 0.883237 0.668056
vt 0.653433 0.668056
vt 0.880353 0.204291
vt 0.849338 0.228830
vt 0.819436 0.204222
vt 0.632857 0.197050
vn -1.0000 0.0000 0.0000
vn 0.0000 0.0000 -1.0000
vn 1.0000 0.0000 0.0000
vn 0.0000 0.0000 1.0000
vn 0.0000 -1.0000 0.0000
vn 0.0000 1.0000 0.0000
vn 0.0000 0.4563 0.8898
vn 0.0000 0.9332 0.3594
vn 0.0000 -0.9332 0.3594
vn 0.0000 -0.4563 0.8898
usemtl AMaterial
s off
f 1/1/1 2/2/1 4/3/1 3/4/1
f 3/5/2 4/3/2 8/6/2 7/7/2
f 7/8/3 8/6/3 6/9/3 5/10/3
f 5/11/4 6/9/4 2/2/4 1/12/4
f 3/5/5 7/7/5 5/13/5 1/14/5
f 8/6/6 4/3/6 2/2/6 6/9/6
usemtl OtherMaterial
f 17/15/1 10/16/1 12/17/1 18/18/1
f 19/19/3 16/20/3 14/21/3 20/22/3
f 20/23/4 14/24/4 10/25/4 17/26/4
f 11/27/5 15/28/5 13/29/5 9/30/5
f 16/31/6 12/32/6 10/25/6 14/24/6
f 32/33/3 20/22/3 27/34/3 34/35/3
f 31/36/3 19/19/3 20/22/3 32/33/3
f 29/37/1 17/15/1 18/18/1 30/38/1
f 9/39/1 24/40/1 21/41/1 11/42/1
f 15/43/3 22/44/3 23/45/3 13/46/3
f 13/29/4 23/47/4 24/48/4 9/30/4
f 34/49/7 27/50/7 26/51/7 33/52/7
f 20/23/8 17/26/8 26/51/8 27/50/8
f 24/48/9 23/47/9 28/53/9 25/54/9
f 29/37/1 24/40/1 25/55/1 33/56/1
f 17/15/1 29/37/1 33/56/1 26/57/1
f 28/53/10 34/49/10 33/52/10 25/54/10
f 24/40/1 29/37/1 30/38/1 21/41/1
f 22/44/3 31/36/3 32/33/3 23/45/3
f 23/45/3 32/33/3 34/35/3 28/58/3
