# Blender v2.79 (sub 0) OBJ File: 'Holy Burger.blend'
# www.blender.org
mtllib Cheese.mtl
o Cube.003_Cube.007
v -68.056702 -0.254569 3.980591
v -68.056702 1.825544 3.980591
v -67.878922 -0.254569 3.980592
v -67.878922 1.825544 3.980592
v -66.701851 -0.254569 -1.480520
v -66.614929 -0.254569 -1.336303
v -66.614929 2.323403 -1.336303
v -66.701851 2.323403 -1.480520
v -69.312164 -0.254569 -1.313291
v -69.211372 -0.254569 -1.480519
v -69.211372 2.323403 -1.480519
v -69.312164 2.323403 -1.313291
v -67.434143 -0.179549 4.160817
v -65.420044 -0.205045 4.680094
v -67.426979 -0.254758 4.126845
v -65.412888 -0.280253 4.646122
v -66.021324 -0.159380 -1.318010
v -66.051743 -0.230421 -1.206033
v -63.555588 -0.262018 -0.562471
v -63.525173 -0.190978 -0.674448
v -66.026360 -0.070708 -1.294139
v -63.530205 -0.102305 -0.650577
v -67.874214 -0.254569 3.991328
v -67.654770 1.793390 3.999999
v -67.743340 -0.254569 3.990016
v -67.525414 1.773552 3.998496
v -66.449036 -0.254569 -1.484335
v -66.360672 -0.254569 -1.340997
v -66.057793 2.271971 -1.309706
v -66.144447 2.291234 -1.452794
v -66.541000 -0.254569 -1.483414
v -66.235352 2.305173 -1.451737
v -67.811440 0.804842 3.957782
v -67.682076 0.785004 3.956278
v -66.251961 1.039677 -1.362029
v -66.338615 1.058940 -1.505116
v -66.429512 1.072879 -1.504060
v -67.707230 -0.234409 4.064633
v -67.027847 1.555072 4.156532
v -67.577515 -0.251860 4.064035
v -66.913513 1.491481 4.152769
v -66.240089 -0.241835 -1.399931
v -66.153954 -0.258440 -1.256199
v -65.205009 1.918021 -1.089214
v -65.275177 1.979077 -1.229581
v -66.331238 -0.229572 -1.399512
v -65.355515 2.023760 -1.226937
v -67.476562 0.745892 4.018404
v -67.362228 0.682302 4.014641
v -65.773445 0.895531 -1.260279
v -65.843613 0.956587 -1.400646
v -65.923958 1.001270 -1.398001
vt 0.741766 0.203403
vt 0.556429 0.203403
vt 0.577679 0.050949
vt 0.741766 0.022988
vt 0.066606 0.187777
vt 0.099756 0.080474
vt 0.320827 0.171471
vt 0.294079 0.258051
vt 0.327922 0.178276
vt 0.302517 0.255573
vt 0.570304 0.041106
vt 0.546026 0.204391
vt 0.739488 0.010008
vt 0.510239 0.322168
vt 0.519558 0.328763
vt 0.464051 0.479241
vt 0.453480 0.481264
vt 0.841328 0.173574
vt 0.839064 0.291951
vt 0.834860 0.289420
vt 0.837105 0.173493
vt 0.692886 0.239593
vt 0.828672 0.292587
vt 0.689237 0.572437
vt 0.579674 0.529677
vt 0.570897 0.667896
vt 0.693074 0.577121
vt 0.574734 0.672580
vt 0.830813 0.173351
vt 0.962667 0.369665
vt 0.967621 0.371244
vt 0.967412 0.378934
vt 0.798778 0.640714
vt 0.792806 0.639826
vt 0.230928 0.363659
vt 0.246809 0.443030
vt 0.240442 0.441579
vt 0.224851 0.364986
vt 0.143535 0.448693
vt 0.231485 0.448243
vt 0.198411 0.836360
vt 0.127847 0.836721
vt 0.174659 0.902816
vt 0.207079 0.839503
vt 0.183328 0.905958
vt 0.212630 0.367660
vt 0.186763 0.278784
vt 0.198178 0.275085
vt 0.037265 0.446201
vt 0.043509 0.444473
vt 0.052120 0.452630
vt 0.054555 0.840564
vt 0.045669 0.843024
vt 0.333212 0.459460
vt 0.424663 0.480529
vt 0.349120 0.870186
vt 0.276403 0.852684
vt 0.143352 0.969204
vt 0.151444 0.973623
vt 0.204278 0.272726
vt 0.890430 0.805445
vt 0.834130 0.825917
vt 0.834494 0.820986
vt 0.888447 0.800357
vt 0.818650 0.751968
vt 0.828330 0.814970
vt 0.531024 0.837098
vt 0.523522 0.787223
vt 0.481523 0.827375
vt 0.529702 0.844031
vt 0.480201 0.834308
vt 0.884753 0.791014
vt 0.945453 0.751410
vt 0.951466 0.759455
vt 0.805534 0.676482
vt 0.807597 0.680990
vt 0.802477 0.688487
vt 0.509612 0.737376
vt 0.506676 0.730960
vt 0.833063 0.889650
vt 0.825191 0.959101
vt 0.521600 0.948305
vt 0.529017 0.894462
vt 0.435318 0.804042
vt 0.431566 0.810020
vt 0.955266 0.763447
vn -0.0000 0.0000 -1.0000
vn 0.9729 0.0000 0.2313
vn 0.0000 0.0000 1.0000
vn 0.0007 0.9961 0.0888
vn 0.8565 0.0000 -0.5162
vn -0.9730 0.0000 0.2308
vn -0.8565 0.0000 -0.5162
vn 0.0000 -1.0000 -0.0000
vn 0.2439 0.2650 -0.9329
vn -0.0108 -0.9999 -0.0073
vn -0.2317 -0.4187 0.8781
vn 0.9425 0.0040 0.3343
vn 0.1203 -0.8527 -0.5083
vn -0.9682 0.0175 -0.2496
vn 0.0070 0.9997 0.0218
vn -0.0050 0.0432 -0.9991
vn 0.9550 -0.1615 0.2490
vn 0.0049 -0.0435 0.9990
vn 0.1143 0.9859 0.1226
vn 0.8482 -0.0797 -0.5236
vn -0.9688 0.0653 -0.2389
vn -0.9586 0.1614 -0.2345
vn 0.8435 -0.1106 -0.5257
vn 0.0132 0.0313 0.9994
vn 0.9652 -0.0643 0.2534
vn -0.0119 -0.0147 -0.9998
vn 0.0454 0.1402 -0.9891
vn 0.8336 -0.5019 0.2308
vn -0.0469 -0.1428 0.9886
vn 0.4467 0.8685 0.2147
vn 0.8109 -0.2689 -0.5197
vn -0.1334 -0.9905 -0.0345
vn -0.9329 0.2642 -0.2448
vn -0.8376 0.5016 -0.2165
vn 0.7734 -0.3405 -0.5347
vn 0.0319 0.0424 0.9986
vn 0.9304 -0.2588 0.2595
vn -0.0160 0.0056 -0.9999
usemtl OtherMaterial
s off
f 10/1/1 11/2/1 8/3/1 5/4/1
f 6/5/2 7/6/2 4/7/2 3/8/2
f 3/8/3 4/7/3 2/9/3 1/10/3
f 7/11/4 8/3/4 11/2/4 12/12/4 2/9/4 4/7/4
f 7/11/5 6/13/5 5/4/5 8/3/5
f 1/10/6 2/9/6 12/12/6 9/14/6
f 11/2/7 10/15/7 9/14/7 12/12/7
f 9/14/8 10/15/8 5/16/8 6/17/8 3/8/8 1/10/8
f 21/18/9 22/19/9 20/20/9 17/21/9
f 18/22/10 19/23/10 16/24/10 15/25/10
f 15/26/11 16/24/11 14/27/11 13/28/11
f 19/23/12 20/20/12 22/19/12 14/27/12 16/24/12
f 19/23/13 18/29/13 17/21/13 20/20/13
f 21/30/14 17/31/14 18/32/14 15/33/14 13/34/14
f 22/19/15 21/30/15 13/34/15 14/27/15
f 37/35/16 32/36/16 30/37/16 36/38/16
f 35/39/17 29/40/17 26/41/17 34/42/17
f 34/43/18 26/41/18 24/44/18 33/45/18
f 29/40/19 30/37/19 32/36/19 24/44/19 26/41/19
f 35/46/20 28/47/20 27/48/20 36/38/20
f 31/49/8 27/50/8 28/51/8 25/52/8 23/53/8
f 37/54/21 31/55/21 23/56/21 33/57/21
f 32/36/22 37/54/22 33/57/22 24/44/22
f 29/40/23 35/46/23 36/38/23 30/37/23
f 25/58/24 34/43/24 33/45/24 23/59/24
f 28/51/25 35/39/25 34/42/25 25/52/25
f 31/60/26 37/35/26 36/38/26 27/48/26
f 52/61/27 47/62/27 45/63/27 51/64/27
f 50/65/28 44/66/28 41/67/28 49/68/28
f 49/69/29 41/67/29 39/70/29 48/71/29
f 44/66/30 45/63/30 47/62/30 39/70/30 41/67/30
f 50/72/31 43/73/31 42/74/31 51/64/31
f 46/75/32 42/76/32 43/77/32 40/78/32 38/79/32
f 52/80/33 46/81/33 38/82/33 48/83/33
f 47/62/34 52/80/34 48/83/34 39/70/34
f 44/66/35 50/72/35 51/64/35 45/63/35
f 40/84/36 49/69/36 48/71/36 38/85/36
f 43/77/37 50/65/37 49/68/37 40/78/37
f 46/86/38 52/61/38 51/64/38 42/74/38
