# Blender v2.79 (sub 0) OBJ File: 'Holy Burger.blend'
# www.blender.org
mtllib Door_Tomato.mtl
o Cylinder.001_Cylinder.006
v -127.216148 53.292801 -2.387263
v -127.216148 53.265266 2.678333
v -116.968285 51.254433 -2.398341
v -116.968285 51.226898 2.667255
v -108.280563 45.449654 -2.429889
v -108.280563 45.422123 2.635707
v -102.475616 36.762188 -2.477104
v -102.475616 36.734657 2.588492
v -100.437187 26.514624 -2.532798
v -100.437187 26.487093 2.532798
v -102.475616 16.267059 -2.588492
v -102.475616 16.239529 2.477104
v -108.280563 7.579597 -2.635707
v -108.280563 7.552067 2.429889
v -116.968285 1.774820 -2.667255
v -116.968285 1.747290 2.398341
v -127.216141 -0.263548 -2.678333
v -127.216141 -0.291079 2.387263
v -137.464005 1.774817 -2.667255
v -137.464005 1.747286 2.398341
v -146.151733 7.579592 -2.635707
v -146.151733 7.552061 2.429889
v -151.956680 16.267059 -2.588492
v -151.956680 16.239529 2.477104
v -153.995117 26.514626 -2.532798
v -153.995117 26.487095 2.532798
v -151.956680 36.762192 -2.477104
v -151.956680 36.734665 2.588492
v -146.151733 45.449661 -2.429889
v -146.151733 45.422127 2.635707
v -137.464005 51.254440 -2.398341
v -137.464005 51.226906 2.667255
v -127.216148 26.514626 -2.532798
v -127.216148 26.487095 2.532798
vt 0.792866 0.021209
vt 0.792866 0.268069
vt 0.744706 0.268069
vt 0.744706 0.021209
vt 0.696546 0.268069
vt 0.696546 0.021209
vt 0.648386 0.268069
vt 0.648386 0.021209
vt 0.600226 0.268069
vt 0.600226 0.021209
vt 0.552066 0.268069
vt 0.552066 0.021209
vt 0.503906 0.268069
vt 0.503906 0.021209
vt 0.455746 0.268069
vt 0.455746 0.021209
vt 0.407586 0.268069
vt 0.407586 0.021209
vt 0.359426 0.268069
vt 0.359426 0.021209
vt 0.311266 0.268069
vt 0.311266 0.021209
vt 0.263106 0.268069
vt 0.263106 0.021209
vt 0.214946 0.268069
vt 0.214946 0.021209
vt 0.166786 0.268069
vt 0.166786 0.021209
vt 0.118626 0.268069
vt 0.118626 0.021209
vt 0.209333 0.766815
vt 0.121148 0.730288
vt 0.257059 0.526882
vt 0.889186 0.021208
vt 0.889186 0.268068
vt 0.841026 0.268069
vt 0.841026 0.021209
vt 0.496992 0.479156
vt 0.496992 0.574608
vt 0.392970 0.323477
vt 0.460464 0.390971
vt 0.053653 0.390971
vt 0.121148 0.323477
vt 0.392970 0.730288
vt 0.304785 0.766815
vt 0.017126 0.574608
vt 0.017126 0.479157
vt 0.304785 0.286949
vt 0.460464 0.662793
vt 0.053653 0.662794
vt 0.209333 0.286949
vt 0.941055 0.595280
vt 0.978512 0.685709
vt 0.732476 0.734648
vt 0.523898 0.595280
vt 0.593109 0.526069
vt 0.683537 0.980684
vt 0.593108 0.943227
vt 0.978512 0.783588
vt 0.941055 0.874016
vt 0.683537 0.488613
vt 0.781416 0.488613
vt 0.523897 0.874016
vt 0.486441 0.783588
vt 0.871844 0.943227
vt 0.781416 0.980684
vt 0.871844 0.526070
vt 0.486441 0.685709
vn 0.1951 0.9808 0.0053
vn 0.5556 0.8315 0.0045
vn 0.8315 0.5556 0.0030
vn 0.9808 0.1951 0.0011
vn 0.9808 -0.1951 -0.0011
vn 0.8315 -0.5556 -0.0030
vn 0.5556 -0.8315 -0.0045
vn 0.1951 -0.9808 -0.0053
vn -0.1951 -0.9808 -0.0053
vn -0.5556 -0.8315 -0.0045
vn -0.8315 -0.5556 -0.0030
vn -0.9808 -0.1951 -0.0011
vn -0.9808 0.1951 0.0011
vn -0.8315 0.5556 0.0030
vn -0.0000 0.0054 -1.0000
vn -0.5556 0.8315 0.0045
vn -0.1951 0.9808 0.0053
vn -0.0000 -0.0054 1.0000
usemtl AnotherMaterial
s off
f 1/1/1 2/2/1 4/3/1 3/4/1
f 3/4/2 4/3/2 6/5/2 5/6/2
f 5/6/3 6/5/3 8/7/3 7/8/3
f 7/8/4 8/7/4 10/9/4 9/10/4
f 9/10/5 10/9/5 12/11/5 11/12/5
f 11/12/6 12/11/6 14/13/6 13/14/6
f 13/14/7 14/13/7 16/15/7 15/16/7
f 15/16/8 16/15/8 18/17/8 17/18/8
f 17/18/9 18/17/9 20/19/9 19/20/9
f 19/20/10 20/19/10 22/21/10 21/22/10
f 21/22/11 22/21/11 24/23/11 23/24/11
f 23/24/12 24/23/12 26/25/12 25/26/12
f 25/26/13 26/25/13 28/27/13 27/28/13
f 27/28/14 28/27/14 30/29/14 29/30/14
f 15/31/15 17/32/15 33/33/15
f 29/34/16 30/35/16 32/36/16 31/37/16
f 31/37/17 32/36/17 2/2/17 1/1/17
f 5/38/15 7/39/15 33/33/15
f 1/40/15 3/41/15 33/33/15
f 25/42/15 27/43/15 33/33/15
f 11/44/15 13/45/15 33/33/15
f 21/46/15 23/47/15 33/33/15
f 31/48/15 1/40/15 33/33/15
f 7/39/15 9/49/15 33/33/15
f 17/32/15 19/50/15 33/33/15
f 27/43/15 29/51/15 33/33/15
f 3/41/15 5/38/15 33/33/15
f 13/45/15 15/31/15 33/33/15
f 23/47/15 25/42/15 33/33/15
f 9/49/15 11/44/15 33/33/15
f 19/50/15 21/46/15 33/33/15
f 29/51/15 31/48/15 33/33/15
f 12/52/18 10/53/18 34/54/18
f 22/55/18 20/56/18 34/54/18
f 32/57/18 30/58/18 34/54/18
f 8/59/18 6/60/18 34/54/18
f 18/61/18 16/62/18 34/54/18
f 28/63/18 26/64/18 34/54/18
f 4/65/18 2/66/18 34/54/18
f 14/67/18 12/52/18 34/54/18
f 24/68/18 22/55/18 34/54/18
f 2/66/18 32/57/18 34/54/18
f 10/53/18 8/59/18 34/54/18
f 20/56/18 18/61/18 34/54/18
f 30/58/18 28/63/18 34/54/18
f 6/60/18 4/65/18 34/54/18
f 16/62/18 14/67/18 34/54/18
f 26/64/18 24/68/18 34/54/18
