# Blender v2.79 (sub 0) OBJ File: 'Holy Burger.blend'
# www.blender.org
mtllib Lettuse.mtl
o Plane_Plane.009
v -0.939389 0.436043 -1.306460
v -0.697439 1.128130 -2.181022
v 0.130071 1.747628 -2.495177
v 1.057184 1.248281 -2.110351
v 1.745728 1.974472 -2.782219
v 2.530130 2.301749 -2.662288
v 2.743077 2.222001 -2.672635
v 2.869767 2.169584 -2.385177
v 3.079749 2.239739 -2.538130
v 3.236639 2.349908 -2.658977
v 3.554704 2.178927 -2.060562
v 3.714338 1.285113 -1.172255
v 4.300434 1.068492 -0.604608
v 4.634249 0.917343 0.247470
v 5.272040 0.598374 0.924644
v 4.728536 -0.314671 2.249770
v 3.218840 -1.335101 2.573477
v 2.743670 -1.366303 2.176206
v 2.179887 -1.412657 2.206807
v 1.672359 -1.791608 2.392693
v 1.322286 -2.133838 2.695141
v 0.926733 -2.796236 3.299657
v 0.087234 -2.974238 3.412402
v -0.686359 -2.816622 3.209740
v -0.606033 -1.980312 2.418101
v -1.012066 -1.267917 1.652647
v -1.793399 -0.789277 0.971181
v -1.670962 -0.603826 0.684065
v -1.233449 -0.526050 0.536385
v -1.369178 -0.297010 0.202046
v -2.064324 -0.012536 -0.176031
v -2.027449 0.702355 -1.252103
v -1.568197 0.843708 -1.496786
v 0.280940 -2.244266 2.551577
v 0.419333 -1.830291 1.697185
v 0.935228 -1.097061 0.677236
v 1.005370 -0.952760 0.228052
v 0.993646 -0.349809 -0.202481
v 0.991258 -0.318667 -1.094360
v -1.259862 0.091548 -0.202559
v 3.738870 2.296517 -2.433401
v 3.049825 -0.318125 0.838951
v 2.933577 -0.231117 0.309296
v 2.346434 1.346997 -2.167912
v 2.843204 0.252278 -0.127091
v 2.714554 0.250554 -1.072661
v 3.302906 -1.056649 2.024572
v 1.961117 0.126838 -0.149906
v 1.775773 1.473447 -2.073343
v 2.153284 -1.237793 1.920042
v 2.003778 -0.554639 0.303795
v 1.903243 0.249517 -1.089177
v 2.036611 -0.524578 1.017854
v 3.658572 2.369723 -2.527007
v 3.575490 2.445467 -2.623857
v -5.832489 1.249551 2.159169
v -6.331615 2.092318 1.573508
v -6.021778 2.888905 0.912680
v -5.110375 2.513962 0.378132
v -5.161096 3.440902 -0.390671
v -4.552838 3.882920 -0.804705
v -4.417513 3.845013 -0.983768
v -4.118181 3.775383 -0.900207
v -4.093006 3.903344 -1.135582
v -4.079831 4.056099 -1.302458
v -3.419673 3.860693 -1.182004
v -2.639906 2.891698 -0.924153
v -1.823340 2.704402 -1.028068
v -0.963943 2.494631 -0.749238
v -0.029985 2.201252 -0.842707
v 0.606570 1.024516 0.203762
v -0.145942 -0.286052 1.272118
v -0.758412 -0.344539 1.349864
v -1.110996 -0.495228 1.766895
v -1.306098 -0.981839 2.168000
v -1.309823 -1.421228 2.539579
v -1.114711 -2.223818 3.067266
v -1.588273 -2.563922 3.706972
v -2.257186 -2.520204 4.170657
v -2.804166 -1.578015 3.789015
v -3.654391 -0.847466 3.747720
v -4.689322 -0.423839 3.978876
v -4.823967 -0.180083 3.745912
v -4.643225 -0.004632 3.351165
v -4.985782 0.242008 3.284168
v -5.734702 0.448497 3.606001
v -6.521019 1.305642 3.042647
v -6.398866 1.560823 2.583599
v -2.109824 -1.694920 3.173848
v -2.659412 -1.144295 2.612352
v -3.084699 -0.191411 1.743322
v -3.374440 0.026228 1.433173
v -3.710769 0.672847 1.299707
v -4.377258 0.831031 0.727697
v -5.219320 0.697973 3.030814
v -3.576149 4.061818 -1.531028
v -1.564024 0.922858 0.498185
v -2.037285 1.062868 0.257272
v -4.294749 2.849678 -0.569112
v -2.428890 1.579864 0.149418
v -3.219161 1.691129 -0.373793
v -0.502417 0.078987 0.917758
v -3.032527 1.302772 0.743703
v -4.606478 2.856723 -0.065761
v -1.344636 -0.288571 1.639519
v -2.657297 0.581951 0.851852
v -3.772502 1.546899 0.201977
v -2.103777 0.514374 1.300083
v -3.700380 4.132117 -1.517109
v -3.828917 4.204853 -1.502707
vt 0.614089 0.479170
vt 0.586854 0.402282
vt 0.708537 0.350562
vt 0.739042 0.464536
vt 0.591238 0.000102
vt 0.617137 0.073914
vt 0.559511 0.101431
vt 0.542664 0.025435
vt 0.687501 0.057536
vt 0.649367 0.003615
vt 0.948035 0.109074
vt 0.838743 0.111243
vt 0.797130 0.096993
vt 0.829430 0.070605
vt 0.717800 0.082340
vt 0.637212 0.135794
vt 0.541478 0.175326
vt 0.512666 0.262066
vt 0.500102 0.240866
vt 0.999898 0.211460
vt 0.836323 0.207099
vt 0.685158 0.213505
vt 0.543902 0.268478
vt 0.965663 0.267872
vt 0.829033 0.243710
vt 0.693777 0.243983
vt 0.539826 0.298352
vt 0.946463 0.326644
vt 0.834300 0.287911
vt 0.702415 0.292248
vt 0.552235 0.332812
vt 0.914295 0.372735
vt 0.824621 0.348593
vt 0.500102 0.335449
vt 0.515476 0.417999
vt 0.547124 0.433274
vt 0.774323 0.356244
vt 0.789267 0.460222
vt 0.680251 0.518990
vt 0.802387 0.516849
vt 0.881125 0.489347
vt 0.876967 0.510939
vt 0.861593 0.514201
vt 0.942480 0.487175
vt 0.938578 0.496392
vt 0.897248 0.498979
vt 0.826224 0.449626
vt 0.926260 0.461746
vt 0.763662 0.243026
vt 0.768173 0.197786
vt 0.775224 0.294555
vt 0.761063 0.122674
vt 0.758968 0.099991
vt 0.934649 0.505975
vt 0.910060 0.508253
vt 0.153150 0.893233
vt 0.125916 0.816345
vt 0.247600 0.764625
vt 0.278103 0.878600
vt 0.130301 0.414164
vt 0.156201 0.487977
vt 0.098573 0.515494
vt 0.081727 0.439497
vt 0.226564 0.471599
vt 0.188431 0.417678
vt 0.487098 0.523138
vt 0.377806 0.525307
vt 0.336193 0.511056
vt 0.368494 0.484669
vt 0.256864 0.496403
vt 0.176275 0.549857
vt 0.080541 0.589388
vt 0.051728 0.676129
vt 0.039164 0.654929
vt 0.538961 0.625525
vt 0.375385 0.621163
vt 0.224220 0.627568
vt 0.082964 0.682541
vt 0.504725 0.681936
vt 0.368096 0.657774
vt 0.232839 0.658047
vt 0.078888 0.712415
vt 0.485525 0.740708
vt 0.373362 0.701975
vt 0.241478 0.706311
vt 0.091297 0.746874
vt 0.453357 0.786799
vt 0.363683 0.762657
vt 0.039164 0.749511
vt 0.054538 0.832062
vt 0.086186 0.847337
vt 0.313385 0.770307
vt 0.328329 0.874286
vt 0.219312 0.933053
vt 0.341448 0.930913
vt 0.420187 0.903411
vt 0.416028 0.925004
vt 0.400654 0.928265
vt 0.481542 0.901239
vt 0.477640 0.910457
vt 0.436309 0.913043
vt 0.365286 0.863690
vt 0.465322 0.875811
vt 0.302725 0.657090
vt 0.307236 0.611850
vt 0.314286 0.708619
vt 0.300126 0.536738
vt 0.298031 0.514054
vt 0.473710 0.920039
vt 0.449121 0.922317
vn 0.0506 0.6369 0.7693
vn 0.0433 0.7215 0.6911
vn -0.1248 0.7438 0.6566
vn -0.4489 0.8228 0.3486
vn -0.2255 0.8563 0.4645
vn 0.2498 0.8139 0.5246
vn 0.2749 0.8699 0.4094
vn -0.3980 0.7869 0.4716
vn 0.1443 0.7536 0.6413
vn -0.4036 0.7609 0.5081
vn 0.2246 0.8869 0.4038
vn -0.3912 0.7680 0.5070
vn 0.1448 0.6291 0.7638
vn -0.5090 0.7855 0.3520
vn 0.2580 0.9412 0.2183
vn -0.0719 0.7290 0.6807
vn 0.0953 0.8891 0.4477
vn 0.1949 0.6454 0.7386
vn -0.2894 0.5534 0.7810
vn -0.0701 0.5240 0.8488
vn -0.2734 0.7800 0.5629
vn -0.2497 0.7188 0.6488
vn -0.1461 0.8867 0.4387
vn -0.3267 0.6665 0.6701
vn -0.2562 0.9637 0.0748
vn -0.0759 0.9946 0.0713
vn -0.1266 0.7385 0.6623
vn -0.1241 0.8042 0.5812
vn -0.1581 0.5881 0.7932
vn -0.4725 0.5561 0.6837
vn -0.3400 0.7637 0.5488
vn -0.1635 0.6058 0.7787
vn -0.4128 0.7669 0.4914
vn -0.4306 0.8995 0.0745
vn -0.2896 0.5344 0.7941
vn 0.1026 0.6759 0.7298
vn -0.4860 0.8694 0.0890
vn -0.2207 0.7774 0.5890
vn 0.5987 0.5182 0.6107
vn 0.5345 0.6105 0.5845
vn 0.3964 0.6070 0.6887
vn -0.0501 0.6700 0.7406
vn 0.1847 0.7261 0.6623
vn 0.5470 0.7614 0.3479
vn 0.4772 0.8371 0.2676
vn 0.0759 0.6266 0.7757
vn 0.5643 0.6671 0.4864
vn 0.0997 0.5949 0.7976
vn 0.4393 0.8453 0.3042
vn 0.1070 0.6043 0.7896
vn 0.6575 0.5283 0.5372
vn -0.0873 0.6225 0.7778
vn 0.3226 0.9308 0.1717
vn 0.4499 0.5987 0.6627
vn 0.3857 0.8180 0.4268
vn 0.6719 0.5568 0.4883
vn 0.3818 0.3742 0.8451
vn 0.5789 0.3753 0.7239
vn 0.2270 0.6291 0.7435
vn 0.3077 0.5614 0.7682
vn 0.2181 0.7736 0.5950
vn 0.2729 0.4936 0.8258
vn -0.1275 0.8811 0.4553
vn -0.0103 0.9440 0.3298
vn 0.3995 0.6007 0.6925
vn 0.3399 0.6768 0.6530
vn 0.4780 0.4298 0.7660
vn 0.1872 0.3581 0.9147
vn 0.1723 0.6032 0.7787
vn 0.4633 0.4482 0.7645
vn 0.0810 0.6016 0.7947
vn -0.2432 0.7874 0.5665
vn 0.3916 0.3539 0.8494
vn 0.6035 0.5712 0.5564
vn -0.2690 0.7460 0.6092
vn 0.2817 0.6322 0.7218
usemtl OtherMaterial
s off
f 2/1/1 1/2/1 39/3/1 4/4/1
f 23/5/2 34/6/2 25/7/2 24/8/2
f 21/9/3 34/6/3 23/5/3 22/10/3
f 16/11/4 47/12/4 18/13/4 17/14/4
f 20/15/5 35/16/5 34/6/5 21/9/5
f 35/16/6 26/17/6 25/7/6 34/6/6
f 35/16/7 28/18/7 27/19/7 26/17/7
f 15/20/8 42/21/8 47/12/8 16/11/8
f 36/22/9 29/23/9 28/18/9 35/16/9
f 14/24/10 43/25/10 42/21/10 15/20/10
f 37/26/11 30/27/11 29/23/11 36/22/11
f 13/28/12 45/29/12 43/25/12 14/24/12
f 38/30/13 40/31/13 30/27/13 37/26/13
f 12/32/14 46/33/14 45/29/14 13/28/14
f 39/3/15 1/2/15 40/31/15 38/30/15
f 30/27/16 40/31/16 31/34/16
f 40/31/17 1/2/17 32/35/17 31/34/17
f 32/35/18 1/2/18 33/36/18
f 39/3/19 52/37/19 49/38/19 4/4/19
f 4/4/20 3/39/20 2/1/20
f 4/4/21 49/38/21 5/40/21
f 5/40/22 8/41/22 7/42/22 6/43/22
f 8/41/23 41/44/23 54/45/23 9/46/23
f 8/41/24 44/47/24 11/48/24 41/44/24
f 42/21/25 43/25/25 51/49/25 53/50/25
f 45/29/26 46/33/26 52/37/26 48/51/26
f 18/13/27 47/12/27 50/52/27 19/53/27
f 47/12/28 42/21/28 53/50/28 50/52/28
f 43/25/29 45/29/29 48/51/29 51/49/29
f 44/47/30 46/33/30 12/32/30 11/48/30
f 19/53/31 50/52/31 35/16/31 20/15/31
f 5/40/32 49/38/32 44/47/32 8/41/32
f 50/52/33 53/50/33 36/22/33 35/16/33
f 53/50/34 51/49/34 37/26/34 36/22/34
f 51/49/35 48/51/35 38/30/35 37/26/35
f 49/38/36 52/37/36 46/33/36 44/47/36
f 48/51/37 52/37/37 39/3/37 38/30/37
f 9/46/38 54/45/38 55/54/38 10/55/38
f 57/56/39 56/57/39 94/58/39 59/59/39
f 78/60/40 89/61/40 80/62/40 79/63/40
f 76/64/41 89/61/41 78/60/41 77/65/41
f 71/66/42 102/67/42 73/68/42 72/69/42
f 75/70/43 90/71/43 89/61/43 76/64/43
f 90/71/44 81/72/44 80/62/44 89/61/44
f 90/71/45 83/73/45 82/74/45 81/72/45
f 70/75/46 97/76/46 102/67/46 71/66/46
f 91/77/47 84/78/47 83/73/47 90/71/47
f 69/79/48 98/80/48 97/76/48 70/75/48
f 92/81/49 85/82/49 84/78/49 91/77/49
f 68/83/50 100/84/50 98/80/50 69/79/50
f 93/85/51 95/86/51 85/82/51 92/81/51
f 67/87/52 101/88/52 100/84/52 68/83/52
f 94/58/53 56/57/53 95/86/53 93/85/53
f 85/82/54 95/86/54 86/89/54
f 95/86/55 56/57/55 87/90/55 86/89/55
f 87/90/56 56/57/56 88/91/56
f 94/58/57 107/92/57 104/93/57 59/59/57
f 59/59/58 58/94/58 57/56/58
f 59/59/59 104/93/59 60/95/59
f 60/95/60 63/96/60 62/97/60 61/98/60
f 63/96/61 96/99/61 109/100/61 64/101/61
f 63/96/62 99/102/62 66/103/62 96/99/62
f 97/76/63 98/80/63 106/104/63 108/105/63
f 100/84/64 101/88/64 107/92/64 103/106/64
f 73/68/65 102/67/65 105/107/65 74/108/65
f 102/67/66 97/76/66 108/105/66 105/107/66
f 98/80/67 100/84/67 103/106/67 106/104/67
f 99/102/68 101/88/68 67/87/68 66/103/68
f 74/108/69 105/107/69 90/71/69 75/70/69
f 60/95/70 104/93/70 99/102/70 63/96/70
f 105/107/71 108/105/71 91/77/71 90/71/71
f 108/105/72 106/104/72 92/81/72 91/77/72
f 106/104/73 103/106/73 93/85/73 92/81/73
f 104/93/74 107/92/74 101/88/74 99/102/74
f 103/106/75 107/92/75 94/58/75 93/85/75
f 64/101/76 109/100/76 110/109/76 65/110/76
