# Blender v2.79 (sub 0) OBJ File: 'Holy Burger.blend'
# www.blender.org
mtllib Tomato.mtl
o Cylinder.002_Cylinder.004
v -71.133446 19.539482 2.644581
v -71.147896 20.375248 2.193465
v -68.201195 19.975191 3.357870
v -68.215645 20.810957 2.906754
v -66.094086 21.013519 5.214041
v -66.108536 21.849285 4.762925
v -65.376709 22.376247 7.715736
v -65.391159 23.212013 7.264621
v -66.241287 23.698235 10.192628
v -66.255737 24.534000 9.741512
v -68.456161 24.625252 11.981035
v -68.470612 25.461018 11.529919
v -71.427849 24.908909 12.601755
v -71.442307 25.744675 12.150640
v -74.360100 24.473200 11.888466
v -74.374550 25.308966 11.437351
v -76.467216 23.434872 10.032296
v -76.481667 24.270638 9.581181
v -77.184593 22.072144 7.530602
v -77.199043 22.907909 7.079486
v -76.320015 20.750156 5.053710
v -76.334465 21.585922 4.602594
v -74.105141 19.823139 3.265303
v -74.119591 20.658905 2.814187
v -71.295097 23.059961 7.172053
v -71.280647 22.224195 7.623169
v -72.254364 19.608763 1.889603
v -72.285110 19.795357 0.967197
v -69.350044 20.502779 1.973635
v -69.380798 20.689373 1.051230
v -67.265526 22.761562 2.361075
v -67.296272 22.948154 1.438669
v -66.559349 25.779873 2.948107
v -66.590096 25.966467 2.025701
v -67.420723 28.748959 3.577437
v -67.451477 28.935551 2.655031
v -69.618858 30.873253 4.080436
v -69.649612 31.059845 3.158030
v -72.564766 31.583553 4.322327
v -72.595512 31.770147 3.399920
v -75.469078 30.689539 4.238294
v -75.499832 30.876133 3.315888
v -77.553604 28.430758 3.850854
v -77.584351 28.617352 2.928449
v -78.259781 25.412447 3.263823
v -78.290535 25.599041 2.341417
v -77.398407 22.443363 2.634493
v -77.429153 22.629955 1.712087
v -75.200272 20.319067 2.131494
v -75.231018 20.505661 1.209087
v -72.440315 25.782753 2.183558
v -72.409561 25.596159 3.105965
v -72.533089 22.527607 -5.434180
v -72.533089 21.569244 -4.684700
v -72.533089 20.775513 -3.762654
v -72.533089 20.176912 -2.703475
v -72.533089 19.796452 -1.547868
v -71.821419 23.841564 -6.022055
v -71.137093 22.974436 -5.512178
v -70.506416 22.217939 -4.797937
v -69.953629 21.601145 -3.906777
v -69.499962 21.147755 -2.872947
v -69.162857 20.875193 -1.736175
v -68.955276 20.793934 -0.540146
v -68.885178 20.907101 0.669175
v -71.381577 24.437931 -6.126158
v -70.274323 24.144251 -5.716383
v -69.253868 23.916248 -5.094397
v -68.359436 23.762680 -4.284099
v -67.625389 23.689449 -3.316629
v -67.079941 23.699373 -2.229168
v -66.744064 23.792068 -1.063506
v -66.630646 23.963972 0.135563
v -71.381577 25.175081 -6.254836
v -70.274323 25.590221 -5.968794
v -69.253868 26.015472 -5.460840
v -68.359436 26.434483 -4.750492
v -67.625389 26.831161 -3.865050
v -67.079941 27.190254 -2.838542
v -66.744064 27.497967 -1.710412
v -66.630646 27.742474 -0.524017
v -71.821419 25.771448 -6.358937
v -71.137093 26.760036 -6.172998
v -70.506416 27.713779 -5.757298
v -69.953629 28.596020 -5.127814
v -69.499962 29.372856 -4.308733
v -69.162857 30.014435 -3.331534
v -68.955276 30.496101 -2.233771
v -68.885178 30.799345 -1.057629
v -72.533089 25.999239 -6.398702
v -72.533089 27.206867 -6.250998
v -72.533089 28.362474 -5.870536
v -72.533089 29.421652 -5.271937
v -72.533089 30.343699 -4.478204
v -72.533089 31.093178 -3.519841
v -72.533089 31.641289 -2.433677
v -72.533089 31.966969 -1.261451
v -72.533089 24.786001 -6.307970
v -73.244759 25.771446 -6.358937
v -73.929085 26.760038 -6.172999
v -74.559761 27.713779 -5.757298
v -75.112549 28.596020 -5.127814
v -75.566216 29.372856 -4.308734
v -75.903320 30.014435 -3.331534
v -76.110901 30.496103 -2.233772
v -76.181000 30.799345 -1.057630
v -73.684601 25.175081 -6.254835
v -74.791855 25.590223 -5.968793
v -75.812309 26.015472 -5.460841
v -76.706741 26.434483 -4.750493
v -77.440788 26.831161 -3.865050
v -77.986237 27.190256 -2.838542
v -78.322113 27.497969 -1.710413
v -78.435532 27.742474 -0.524018
v -73.684601 24.437931 -6.126157
v -74.791855 24.144253 -5.716384
v -75.812309 23.916246 -5.094397
v -76.706749 23.762680 -4.284099
v -77.440788 23.689451 -3.316629
v -77.986237 23.699375 -2.229168
v -78.322113 23.792070 -1.063505
v -78.435532 23.963974 0.135563
v -73.244759 23.841564 -6.022055
v -73.929085 22.974436 -5.512179
v -74.559761 22.217939 -4.797937
v -75.112549 21.601145 -3.906778
v -75.566216 21.147755 -2.872948
v -75.903320 20.875195 -1.736176
v -76.110901 20.793934 -0.540146
v -76.181000 20.907101 0.669176
v -72.533089 25.853224 -0.194227
v -72.533089 23.613771 -5.982291
v -72.533089 19.648748 -0.340241
v -72.533089 19.739479 0.872997
vt 0.243968 0.880264
vt 0.243967 0.956614
vt 0.224207 0.956614
vt 0.224207 0.880264
vt 0.204446 0.956614
vt 0.204446 0.880264
vt 0.184685 0.956614
vt 0.184685 0.880264
vt 0.164924 0.956614
vt 0.164924 0.880264
vt 0.145164 0.956614
vt 0.145164 0.880264
vt 0.125403 0.956614
vt 0.125403 0.880264
vt 0.105642 0.956614
vt 0.105642 0.880264
vt 0.085881 0.956614
vt 0.085881 0.880264
vt 0.066121 0.956614
vt 0.066121 0.880264
vt 0.046360 0.956614
vt 0.046360 0.880264
vt 0.026599 0.956614
vt 0.026599 0.880264
vt 0.006838 0.956614
vt 0.006838 0.880264
vt 0.475163 0.922298
vt 0.475163 0.882317
vt 0.549769 0.902308
vt 0.495153 0.847693
vt 0.529778 0.827702
vt 0.569759 0.827702
vt 0.604384 0.847693
vt 0.624374 0.882317
vt 0.569759 0.976913
vt 0.529778 0.976913
vt 0.604384 0.956923
vt 0.624374 0.922298
vt 0.495153 0.956923
vt 0.286574 0.947714
vt 0.261369 0.904057
vt 0.355437 0.878851
vt 0.330231 0.972920
vt 0.380642 0.972920
vt 0.424299 0.947714
vt 0.380642 0.784783
vt 0.424299 0.809989
vt 0.449505 0.853646
vt 0.449505 0.904057
vt 0.330231 0.784783
vt 0.286574 0.809989
vt 0.261369 0.853646
vt 0.340049 0.000210
vt 0.340049 0.051625
vt 0.317865 0.110543
vt 0.317865 0.059128
vt 0.288748 0.259113
vt 0.288748 0.207699
vt 0.254352 0.457529
vt 0.254352 0.406114
vt 0.220255 0.652626
vt 0.220255 0.601210
vt 0.191848 0.792124
vt 0.191848 0.740709
vt 0.170130 0.838647
vt 0.170130 0.787231
vt 0.147945 0.779728
vt 0.147945 0.728312
vt 0.118827 0.631154
vt 0.118827 0.579739
vt 0.084432 0.432738
vt 0.084432 0.381323
vt 0.050335 0.237646
vt 0.050335 0.186231
vt 0.021929 0.098149
vt 0.021929 0.046734
vt 0.000210 0.051627
vt 0.000210 0.000213
vt 0.712410 0.633280
vt 0.668421 0.710500
vt 0.548223 0.637628
vt 0.592224 0.768194
vt 0.504238 0.790903
vt 0.428037 0.772542
vt 0.384040 0.718031
vt 0.384035 0.641976
vt 0.592207 0.484354
vt 0.668408 0.502715
vt 0.504220 0.507063
vt 0.428024 0.564757
vt 0.712405 0.557226
vt 0.770445 0.965563
vt 0.698146 0.940845
vt 0.812183 0.801696
vt 0.853928 0.946374
vt 0.926226 0.888418
vt 0.967966 0.807225
vt 0.770439 0.657018
vt 0.853922 0.637828
vt 0.926221 0.662547
vt 0.967964 0.724551
vt 0.698141 0.714974
vt 0.656401 0.796167
vt 0.656403 0.878841
vt 0.956026 0.641477
vt 0.914913 0.608373
vt 0.940927 0.540320
vt 0.982623 0.571455
vt 0.646747 0.222698
vt 0.617923 0.152009
vt 0.657639 0.210875
vt 0.679036 0.293868
vt 0.699124 0.270403
vt 0.717468 0.366801
vt 0.745200 0.331225
vt 0.762415 0.438528
vt 0.794741 0.391639
vt 0.812879 0.504664
vt 0.845426 0.448584
vt 0.865224 0.561895
vt 0.894754 0.498899
vt 0.852120 0.331250
vt 0.894573 0.360955
vt 0.935746 0.387538
vt 0.654668 0.177968
vt 0.690843 0.206052
vt 0.728351 0.236107
vt 0.767907 0.267547
vt 0.809451 0.299644
vt 0.689163 0.118809
vt 0.713274 0.118466
vt 0.739708 0.123068
vt 0.770148 0.132517
vt 0.805541 0.146831
vt 0.844428 0.165339
vt 0.642476 0.135535
vt 0.665727 0.124429
vt 0.686258 0.023985
vt 0.717424 0.030660
vt 0.632111 0.104897
vt 0.639954 0.070647
vt 0.644990 0.047897
vt 0.650700 0.032776
vt 0.656791 0.024691
vt 0.664002 0.022315
vt 0.618612 0.026799
vt 0.617443 0.013616
vt 0.617457 0.011154
vt 0.617564 0.010504
vt 0.617777 0.009645
vt 0.619628 0.005033
vt 0.618039 0.093182
vt 0.618607 0.053022
vt 0.555806 0.015617
vt 0.525926 0.019081
vt 0.603999 0.102628
vt 0.596926 0.067148
vt 0.592885 0.043650
vt 0.588166 0.028011
vt 0.582460 0.019191
vt 0.576336 0.016241
vt 0.525479 0.104152
vt 0.500214 0.105402
vt 0.471004 0.111270
vt 0.436390 0.121794
vt 0.397822 0.136507
vt 0.593616 0.131567
vt 0.571007 0.116846
vt 0.548485 0.107798
vt 0.582450 0.172704
vt 0.547478 0.195735
vt 0.511136 0.220785
vt 0.472752 0.247214
vt 0.432302 0.274371
vt 0.390511 0.301289
vt 0.348699 0.326714
vt 0.307998 0.349501
vt 0.445565 0.371385
vt 0.395968 0.423040
vt 0.170332 0.282416
vt 0.116730 0.266242
vt 0.170335 0.193359
vt 0.347551 0.468409
vt 0.083605 0.167188
vt 0.116734 0.122145
vt 0.302079 0.505441
vt 0.257064 0.219530
vt 0.223935 0.264574
vt 0.260863 0.532859
vt 0.579406 0.205904
vt 0.170337 0.104303
vt 0.538938 0.260566
vt 0.083603 0.222229
vt 0.493964 0.316264
vt 0.257066 0.164490
vt 0.589802 0.219775
vt 0.557974 0.288046
vt 0.519905 0.357714
vt 0.474892 0.425495
vt 0.424584 0.487091
vt 0.373018 0.539827
vt 0.223939 0.120477
vt 0.324363 0.582183
vt 0.283664 0.611820
vn 0.2737 -0.4532 -0.8484
vn 0.7102 -0.3248 -0.6245
vn 0.9696 -0.1030 -0.2219
vn 0.9556 0.1526 0.2521
vn 0.6727 0.3604 0.6462
vn 0.2233 0.4660 0.8562
vn -0.2737 0.4532 0.8484
vn -0.7102 0.3248 0.6245
vn -0.9696 0.1030 0.2219
vn -0.9556 -0.1526 -0.2521
vn -0.6727 -0.3604 -0.6462
vn -0.2233 -0.4660 -0.8562
vn -0.0152 0.8799 -0.4749
vn 0.0152 -0.8799 0.4749
vn 0.2936 -0.9350 -0.1989
vn 0.7390 -0.6551 -0.1572
vn 0.9741 -0.2132 -0.0756
vn 0.9615 0.2740 0.0234
vn 0.7039 0.7004 0.1182
vn 0.2447 0.9519 0.1844
vn -0.2936 0.9350 0.1989
vn -0.7390 0.6551 0.1572
vn -0.9741 0.2132 0.0756
vn -0.9615 -0.2740 -0.0234
vn -0.7039 -0.7004 -0.1182
vn -0.2447 -0.9519 -0.1844
vn -0.0327 0.1982 -0.9796
vn 0.0327 -0.1982 0.9796
vn 0.3077 -0.9488 0.0710
vn 0.0318 -0.2676 -0.9630
vn 0.0939 -0.4485 -0.8888
vn 0.1514 -0.6089 -0.7786
vn 0.2019 -0.7423 -0.6390
vn 0.2436 -0.8444 -0.4772
vn 0.2755 -0.9131 -0.3006
vn 0.2969 -0.9478 -0.1159
vn 0.7773 -0.6040 -0.1759
vn 0.8055 -0.5925 0.0088
vn 0.0833 -0.2307 -0.9695
vn 0.2458 -0.3398 -0.9078
vn 0.3964 -0.4336 -0.8092
vn 0.5285 -0.5085 -0.6798
vn 0.6378 -0.5623 -0.5264
vn 0.7212 -0.5941 -0.3563
vn 0.6533 -0.1302 -0.7458
vn 0.7883 -0.1058 -0.6061
vn 0.8914 -0.0779 -0.4464
vn 0.9608 -0.0477 -0.2731
vn 0.9956 -0.0160 -0.0919
vn 0.1030 -0.1710 -0.9799
vn 0.3039 -0.1638 -0.9385
vn 0.4899 -0.1499 -0.8588
vn 0.8055 0.5605 -0.1925
vn 0.0833 -0.1114 -0.9903
vn 0.2458 0.0121 -0.9692
vn 0.3964 0.1338 -0.9083
vn 0.5285 0.2481 -0.8118
vn 0.6378 0.3506 -0.6858
vn 0.7212 0.4382 -0.5365
vn 0.7773 0.5087 -0.3702
vn 0.2019 0.4819 -0.8527
vn 0.2436 0.6328 -0.7350
vn 0.2755 0.7572 -0.5922
vn 0.2969 0.8525 -0.4302
vn 0.3077 0.9168 -0.2547
vn 0.0318 -0.0745 -0.9967
vn 0.0939 0.1209 -0.9882
vn 0.1514 0.3091 -0.9389
vn -0.3077 0.9168 -0.2547
vn -0.0318 -0.0745 -0.9967
vn -0.0939 0.1209 -0.9882
vn -0.1514 0.3091 -0.9389
vn -0.2019 0.4819 -0.8527
vn -0.2436 0.6328 -0.7350
vn -0.2755 0.7572 -0.5922
vn -0.2969 0.8525 -0.4302
vn -0.6378 0.3506 -0.6858
vn -0.7212 0.4382 -0.5365
vn -0.7773 0.5087 -0.3702
vn -0.8055 0.5605 -0.1925
vn -0.0833 -0.1114 -0.9903
vn -0.2458 0.0121 -0.9692
vn -0.3964 0.1338 -0.9083
vn -0.5285 0.2481 -0.8118
vn -0.1030 -0.1710 -0.9799
vn -0.3039 -0.1638 -0.9385
vn -0.4899 -0.1499 -0.8588
vn -0.6533 -0.1302 -0.7458
vn -0.7883 -0.1058 -0.6061
vn -0.8914 -0.0779 -0.4464
vn -0.9608 -0.0477 -0.2731
vn -0.9956 -0.0160 -0.0919
vn -0.6378 -0.5623 -0.5264
vn -0.0000 0.1720 0.9851
vn -0.7212 -0.5941 -0.3563
vn -0.7773 -0.6040 -0.1759
vn -0.8055 -0.5925 0.0088
vn -0.0833 -0.2307 -0.9695
vn -0.2458 -0.3398 -0.9078
vn -0.3964 -0.4336 -0.8092
vn -0.5285 -0.5085 -0.6798
vn -0.0939 -0.4485 -0.8888
vn -0.1514 -0.6089 -0.7786
vn -0.2019 -0.7423 -0.6390
vn -0.2436 -0.8444 -0.4772
vn -0.2755 -0.9131 -0.3006
vn -0.2969 -0.9478 -0.1159
vn -0.3077 -0.9488 0.0710
vn -0.0318 -0.2676 -0.9630
usemtl AnotherMaterial
s off
f 1/1/1 2/2/1 4/3/1 3/4/1
f 3/4/2 4/3/2 6/5/2 5/6/2
f 5/6/3 6/5/3 8/7/3 7/8/3
f 7/8/4 8/7/4 10/9/4 9/10/4
f 9/10/5 10/9/5 12/11/5 11/12/5
f 11/12/6 12/11/6 14/13/6 13/14/6
f 13/14/7 14/13/7 16/15/7 15/16/7
f 15/16/8 16/15/8 18/17/8 17/18/8
f 17/18/9 18/17/9 20/19/9 19/20/9
f 19/20/10 20/19/10 22/21/10 21/22/10
f 21/22/11 22/21/11 24/23/11 23/24/11
f 23/24/12 24/23/12 2/25/12 1/26/12
f 20/27/13 18/28/13 25/29/13
f 18/28/13 16/30/13 25/29/13
f 16/30/13 14/31/13 25/29/13
f 14/31/13 12/32/13 25/29/13
f 12/32/13 10/33/13 25/29/13
f 10/33/13 8/34/13 25/29/13
f 2/35/13 24/36/13 25/29/13
f 4/37/13 2/35/13 25/29/13
f 8/34/13 6/38/13 25/29/13
f 24/36/13 22/39/13 25/29/13
f 6/38/13 4/37/13 25/29/13
f 22/39/13 20/27/13 25/29/13
f 13/40/14 15/41/14 26/42/14
f 11/43/14 13/40/14 26/42/14
f 9/44/14 11/43/14 26/42/14
f 7/45/14 9/44/14 26/42/14
f 23/46/14 1/47/14 26/42/14
f 1/47/14 3/48/14 26/42/14
f 5/49/14 7/45/14 26/42/14
f 21/50/14 23/46/14 26/42/14
f 3/48/14 5/49/14 26/42/14
f 19/51/14 21/50/14 26/42/14
f 17/52/14 19/51/14 26/42/14
f 15/41/14 17/52/14 26/42/14
f 27/53/15 28/54/15 30/55/15 29/56/15
f 29/56/16 30/55/16 32/57/16 31/58/16
f 31/58/17 32/57/17 34/59/17 33/60/17
f 33/60/18 34/59/18 36/61/18 35/62/18
f 35/62/19 36/61/19 38/63/19 37/64/19
f 37/64/20 38/63/20 40/65/20 39/66/20
f 39/66/21 40/65/21 42/67/21 41/68/21
f 41/68/22 42/67/22 44/69/22 43/70/22
f 43/70/23 44/69/23 46/71/23 45/72/23
f 45/72/24 46/71/24 48/73/24 47/74/24
f 47/74/25 48/73/25 50/75/25 49/76/25
f 49/76/26 50/75/26 28/77/26 27/78/26
f 46/79/27 44/80/27 51/81/27
f 44/80/27 42/82/27 51/81/27
f 42/82/27 40/83/27 51/81/27
f 40/83/27 38/84/27 51/81/27
f 38/84/27 36/85/27 51/81/27
f 36/85/27 34/86/27 51/81/27
f 28/87/27 50/88/27 51/81/27
f 30/89/27 28/87/27 51/81/27
f 34/86/27 32/90/27 51/81/27
f 50/88/27 48/91/27 51/81/27
f 32/90/27 30/89/27 51/81/27
f 48/91/27 46/79/27 51/81/27
f 39/92/28 41/93/28 52/94/28
f 37/95/28 39/92/28 52/94/28
f 35/96/28 37/95/28 52/94/28
f 33/97/28 35/96/28 52/94/28
f 49/98/28 27/99/28 52/94/28
f 27/99/28 29/100/28 52/94/28
f 31/101/28 33/97/28 52/94/28
f 47/102/28 49/98/28 52/94/28
f 29/100/28 31/101/28 52/94/28
f 45/103/28 47/102/28 52/94/28
f 43/104/28 45/103/28 52/94/28
f 41/93/28 43/104/28 52/94/28
f 134/105/29 133/106/29 64/107/29 65/108/29
f 132/109/30 98/110/30 58/111/30
f 53/112/31 132/109/31 58/111/31 59/113/31
f 54/114/32 53/112/32 59/113/32 60/115/32
f 55/116/33 54/114/33 60/115/33 61/117/33
f 56/118/34 55/116/34 61/117/34 62/119/34
f 57/120/35 56/118/35 62/119/35 63/121/35
f 133/106/36 57/120/36 63/121/36 64/107/36
f 64/107/37 63/121/37 71/122/37 72/123/37
f 65/108/38 64/107/38 72/123/38 73/124/38
f 58/111/39 98/110/39 66/125/39
f 59/113/40 58/111/40 66/125/40 67/126/40
f 60/115/41 59/113/41 67/126/41 68/127/41
f 61/117/42 60/115/42 68/127/42 69/128/42
f 62/119/43 61/117/43 69/128/43 70/129/43
f 63/121/44 62/119/44 70/129/44 71/122/44
f 69/128/45 68/127/45 76/130/45 77/131/45
f 70/129/46 69/128/46 77/131/46 78/132/46
f 71/122/47 70/129/47 78/132/47 79/133/47
f 72/123/48 71/122/48 79/133/48 80/134/48
f 73/124/49 72/123/49 80/134/49 81/135/49
f 66/125/50 98/110/50 74/136/50
f 67/126/51 66/125/51 74/136/51 75/137/51
f 68/127/52 67/126/52 75/137/52 76/130/52
f 81/135/53 80/134/53 88/138/53 89/139/53
f 74/136/54 98/110/54 82/140/54
f 75/137/55 74/136/55 82/140/55 83/141/55
f 76/130/56 75/137/56 83/141/56 84/142/56
f 77/131/57 76/130/57 84/142/57 85/143/57
f 78/132/58 77/131/58 85/143/58 86/144/58
f 79/133/59 78/132/59 86/144/59 87/145/59
f 80/134/60 79/133/60 87/145/60 88/138/60
f 85/143/61 84/142/61 92/146/61 93/147/61
f 86/144/62 85/143/62 93/147/62 94/148/62
f 87/145/63 86/144/63 94/148/63 95/149/63
f 88/138/64 87/145/64 95/149/64 96/150/64
f 89/139/65 88/138/65 96/150/65 97/151/65
f 82/140/66 98/110/66 90/152/66
f 83/141/67 82/140/67 90/152/67 91/153/67
f 84/142/68 83/141/68 91/153/68 92/146/68
f 97/151/69 96/150/69 105/154/69 106/155/69
f 90/152/70 98/110/70 99/156/70
f 91/153/71 90/152/71 99/156/71 100/157/71
f 92/146/72 91/153/72 100/157/72 101/158/72
f 93/147/73 92/146/73 101/158/73 102/159/73
f 94/148/74 93/147/74 102/159/74 103/160/74
f 95/149/75 94/148/75 103/160/75 104/161/75
f 96/150/76 95/149/76 104/161/76 105/154/76
f 103/160/77 102/159/77 110/162/77 111/163/77
f 104/161/78 103/160/78 111/163/78 112/164/78
f 105/154/79 104/161/79 112/164/79 113/165/79
f 106/155/80 105/154/80 113/165/80 114/166/80
f 99/156/81 98/110/81 107/167/81
f 100/157/82 99/156/82 107/167/82 108/168/82
f 101/158/83 100/157/83 108/168/83 109/169/83
f 102/159/84 101/158/84 109/169/84 110/162/84
f 107/167/85 98/110/85 115/170/85
f 108/168/86 107/167/86 115/170/86 116/171/86
f 109/169/87 108/168/87 116/171/87 117/172/87
f 110/162/88 109/169/88 117/172/88 118/173/88
f 111/163/89 110/162/89 118/173/89 119/174/89
f 112/164/90 111/163/90 119/174/90 120/175/90
f 113/165/91 112/164/91 120/175/91 121/176/91
f 114/166/92 113/165/92 121/176/92 122/177/92
f 119/174/93 118/173/93 126/178/93 127/179/93
f 97/180/94 106/181/94 131/182/94
f 120/175/95 119/174/95 127/179/95 128/183/95
f 122/184/94 130/185/94 131/182/94
f 121/176/96 120/175/96 128/183/96 129/186/96
f 81/187/94 89/188/94 131/182/94
f 122/177/97 121/176/97 129/186/97 130/189/97
f 115/170/98 98/110/98 123/190/98
f 130/185/94 134/191/94 131/182/94
f 116/171/99 115/170/99 123/190/99 124/192/99
f 106/181/94 114/193/94 131/182/94
f 117/172/100 116/171/100 124/192/100 125/194/100
f 89/188/94 97/180/94 131/182/94
f 118/173/101 117/172/101 125/194/101 126/178/101
f 73/195/94 81/187/94 131/182/94
f 124/192/102 123/190/102 132/196/102 53/197/102
f 125/194/103 124/192/103 53/197/103 54/198/103
f 114/193/94 122/184/94 131/182/94
f 126/178/104 125/194/104 54/198/104 55/199/104
f 127/179/105 126/178/105 55/199/105 56/200/105
f 128/183/106 127/179/106 56/200/106 57/201/106
f 65/202/94 73/195/94 131/182/94
f 129/186/107 128/183/107 57/201/107 133/203/107
f 134/191/94 65/202/94 131/182/94
f 130/189/108 129/186/108 133/203/108 134/204/108
f 123/190/109 98/110/109 132/196/109
