# Blender v2.79 (sub 0) OBJ File: 'Holy Burger.blend'
# www.blender.org
mtllib Meat.mtl
o Cylinder
v 0.000000 2.277968 -0.239866
v 0.000000 2.276438 0.253980
v 1.138607 1.972881 -0.240812
v 1.138607 1.971351 0.253034
v 1.972126 1.139367 -0.243395
v 1.972126 1.137836 0.250451
v 2.277214 0.000765 -0.246923
v 2.277214 -0.000765 0.246923
v 1.972125 -1.137837 -0.250451
v 1.972125 -1.139367 0.243395
v 1.138607 -1.971351 -0.253034
v 1.138607 -1.972881 0.240812
v 0.000000 -2.276438 -0.253980
v 0.000000 -2.277968 0.239866
v -1.138607 -1.971351 -0.253034
v -1.138607 -1.972881 0.240812
v -1.972125 -1.137837 -0.250451
v -1.972125 -1.139368 0.243395
v -2.277214 0.000764 -0.246923
v -2.277214 -0.000766 0.246923
v -1.972126 1.139366 -0.243395
v -1.972126 1.137835 0.250451
v -1.138608 1.972880 -0.240812
v -1.138608 1.971350 0.253034
v -0.000000 -0.000766 0.246923
v 0.000000 0.000765 -0.246923
vt 0.495911 0.048869
vt 0.495911 0.349655
vt 0.418061 0.349655
vt 0.418062 0.048869
vt 0.340212 0.349655
vt 0.340212 0.048869
vt 0.262363 0.349655
vt 0.262363 0.048869
vt 0.184514 0.349655
vt 0.184514 0.048869
vt 0.106665 0.349655
vt 0.106665 0.048869
vt 0.028816 0.349655
vt 0.028816 0.048869
vt 0.963005 0.048869
vt 0.963006 0.349655
vt 0.885156 0.349655
vt 0.885156 0.048869
vt 0.807307 0.349655
vt 0.807307 0.048869
vt 0.729458 0.349655
vt 0.729458 0.048869
vt 0.651609 0.349655
vt 0.651609 0.048869
vt 0.671477 0.378150
vt 0.789071 0.378150
vt 0.730274 0.597584
vt 0.573760 0.349655
vt 0.573760 0.048869
vt 0.569637 0.436947
vt 0.890911 0.436948
vt 0.949708 0.538787
vt 0.789071 0.817018
vt 0.671477 0.817018
vt 0.890911 0.758221
vt 0.949708 0.656382
vt 0.569637 0.758221
vt 0.510840 0.656381
vt 0.510840 0.538787
vt 0.491486 0.682432
vt 0.491486 0.805053
vt 0.262672 0.743743
vt 0.095169 0.576239
vt 0.201362 0.514929
vt 0.323983 0.514929
vt 0.430176 0.576239
vt 0.033859 0.682432
vt 0.033859 0.805053
vt 0.095169 0.911246
vt 0.201362 0.972556
vt 0.323983 0.972556
vt 0.430175 0.911246
vn 0.2588 0.9659 0.0030
vn 0.7071 0.7071 0.0022
vn 0.9659 0.2588 0.0008
vn 0.9659 -0.2588 -0.0008
vn 0.7071 -0.7071 -0.0022
vn 0.2588 -0.9659 -0.0030
vn -0.2588 -0.9659 -0.0030
vn -0.7071 -0.7071 -0.0022
vn -0.9659 -0.2588 -0.0008
vn -0.9659 0.2588 0.0008
vn 0.0000 -0.0031 1.0000
vn -0.7071 0.7071 0.0022
vn -0.2588 0.9659 0.0030
vn 0.0000 0.0031 -1.0000
usemtl AMaterial
s off
f 1/1/1 2/2/1 4/3/1 3/4/1
f 3/4/2 4/3/2 6/5/2 5/6/2
f 5/6/3 6/5/3 8/7/3 7/8/3
f 7/8/4 8/7/4 10/9/4 9/10/4
f 9/10/5 10/9/5 12/11/5 11/12/5
f 11/12/6 12/11/6 14/13/6 13/14/6
f 13/15/7 14/16/7 16/17/7 15/18/7
f 15/18/8 16/17/8 18/19/8 17/20/8
f 17/20/9 18/19/9 20/21/9 19/22/9
f 19/22/10 20/21/10 22/23/10 21/24/10
f 14/25/11 12/26/11 25/27/11
f 21/24/12 22/23/12 24/28/12 23/29/12
f 23/29/13 24/28/13 2/2/13 1/1/13
f 16/30/11 14/25/11 25/27/11
f 12/26/11 10/31/11 25/27/11
f 10/31/11 8/32/11 25/27/11
f 2/33/11 24/34/11 25/27/11
f 4/35/11 2/33/11 25/27/11
f 8/32/11 6/36/11 25/27/11
f 24/34/11 22/37/11 25/27/11
f 6/36/11 4/35/11 25/27/11
f 22/37/11 20/38/11 25/27/11
f 20/38/11 18/39/11 25/27/11
f 18/39/11 16/30/11 25/27/11
f 7/40/14 9/41/14 26/42/14
f 23/43/14 1/44/14 26/42/14
f 1/44/14 3/45/14 26/42/14
f 5/46/14 7/40/14 26/42/14
f 21/47/14 23/43/14 26/42/14
f 3/45/14 5/46/14 26/42/14
f 19/48/14 21/47/14 26/42/14
f 17/49/14 19/48/14 26/42/14
f 15/50/14 17/49/14 26/42/14
f 13/51/14 15/50/14 26/42/14
f 11/52/14 13/51/14 26/42/14
f 9/41/14 11/52/14 26/42/14
