# Blender v2.79 (sub 0) OBJ File: 'Holy Burger.blend'
# www.blender.org
mtllib Buns.mtl
o Sphere.001_Sphere.004
v -69.279335 5.084990 -1.102705
v -69.304657 5.313854 -1.471144
v -69.327682 5.594164 -1.782097
v -69.347519 5.915149 -2.023613
v -69.363411 6.264473 -2.186412
v -69.511826 4.898648 -0.590977
v -69.787659 5.050232 -0.906625
v -70.042633 5.263394 -1.186481
v -70.266945 5.529941 -1.419789
v -70.451973 5.839631 -1.597585
v -70.590607 6.180562 -1.713035
v -70.677528 6.539632 -1.761702
v -70.709389 6.903042 -1.741718
v -69.661827 4.862265 -0.359383
v -70.081902 4.978864 -0.452337
v -70.469803 5.159783 -0.526956
v -70.810623 5.398070 -0.580374
v -71.091278 5.684567 -0.610537
v -71.300964 6.008264 -0.616286
v -71.431641 6.356722 -0.597400
v -71.478271 6.716549 -0.554605
v -69.645393 4.821115 -0.084615
v -70.049667 4.898145 0.086638
v -70.423004 5.042598 0.255514
v -70.751068 5.248921 0.415521
v -71.021240 5.509187 0.560512
v -71.223145 5.813392 0.684914
v -71.349030 6.149847 0.783946
v -71.394043 6.505621 0.853803
v -69.468803 4.790915 0.128373
v -69.703270 4.838908 0.504429
v -69.920113 4.956599 0.862053
v -70.111008 5.139465 1.187498
v -70.268616 5.380480 1.468261
v -70.386871 5.670381 1.693550
v -70.461243 5.998026 1.854709
v -70.488869 6.350826 1.945543
v -69.199509 4.783202 0.198228
v -69.175026 4.823778 0.641455
v -69.153221 4.934634 1.060983
v -69.134941 5.111509 1.440688
v -69.120880 5.347607 1.765981
v -69.111580 5.633854 2.024359
v -69.107399 5.959250 2.205894
v -69.108498 6.311291 2.303608
v -69.225731 4.814466 -0.251666
v -68.940361 4.800921 0.098267
v -68.666702 4.858535 0.445376
v -68.415253 4.985094 0.776320
v -68.195679 5.175733 1.078381
v -68.016426 5.423125 1.339953
v -67.884377 5.717766 1.550982
v -67.804604 6.048330 1.703359
v -67.780182 6.402116 1.791229
v -68.790359 4.837305 -0.133327
v -68.372459 4.929904 -0.008913
v -67.988083 5.088704 0.116795
v -67.651993 5.307603 0.238966
v -67.377121 5.578189 0.352905
v -67.174019 5.890063 0.454233
v -67.050491 6.231240 0.539057
v -67.011299 6.588610 0.604117
v -68.806793 4.878455 -0.408094
v -68.404694 5.010623 -0.547888
v -68.034874 5.205889 -0.665675
v -67.711555 5.456752 -0.756930
v -67.447159 5.753570 -0.818144
v -67.251839 6.084935 -0.846967
v -67.133110 6.438116 -0.842289
v -67.095528 6.799537 -0.804292
v -68.983383 4.908654 -0.621082
v -68.751091 5.069860 -0.965679
v -68.537766 5.291889 -1.272214
v -68.351608 5.566208 -1.528907
v -68.199783 5.882277 -1.725893
v -68.088112 6.227947 -1.855603
v -68.020889 6.589936 -1.913052
v -68.000702 6.954332 -1.896032
v -69.244789 6.652579 0.024755
v -69.252686 4.916367 -0.690938
v -69.374741 6.628712 -2.264237
v -69.381073 6.993868 -2.254098
v -69.233917 9.737756 -1.697001
v -69.233917 9.406803 -1.978495
v -69.233917 9.044474 -2.189476
v -69.233917 8.664689 -2.321835
v -69.233917 8.282045 -2.370486
v -68.969223 10.062754 -1.278728
v -68.714699 9.812576 -1.545796
v -68.480133 9.515427 -1.758980
v -68.274529 9.182725 -1.910086
v -68.105797 8.827255 -1.993307
v -67.980415 8.462680 -2.005446
v -67.903206 8.103007 -1.946036
v -67.877136 7.762060 -1.817360
v -68.805634 10.162615 -1.076920
v -68.393806 10.008461 -1.149937
v -68.014259 9.799807 -1.184281
v -67.681595 9.544671 -1.178633
v -67.408577 9.252859 -1.133209
v -67.205704 8.935585 -1.049757
v -67.080780 8.605042 -0.931482
v -67.038597 8.273930 -0.782929
v -68.805634 10.286049 -0.827472
v -68.393806 10.250587 -0.660627
v -68.014259 10.151319 -0.473914
v -67.681595 9.992062 -0.274507
v -67.408577 9.778934 -0.070070
v -67.205704 9.520128 0.131540
v -67.080780 9.225589 0.322576
v -67.038597 8.906635 0.495697
v -68.969223 10.385910 -0.625665
v -68.714699 10.446470 -0.264768
v -68.480133 10.435699 0.100785
v -68.274529 10.354008 0.456946
v -68.105797 10.204538 0.790027
v -67.980415 9.993034 1.087229
v -67.903206 9.727623 1.337130
v -67.877136 9.418504 1.530127
v -69.233917 10.424054 -0.548581
v -69.233917 10.521292 -0.113563
v -69.233917 10.544321 0.320301
v -69.233917 10.492259 0.736336
v -69.233917 10.367105 1.118555
v -69.233917 10.173668 1.452269
v -69.233917 9.919382 1.724655
v -69.233917 9.614021 1.925245
v -69.233917 10.256346 -0.968037
v -69.498611 10.385910 -0.625665
v -69.753136 10.446470 -0.264768
v -69.987701 10.435699 0.100785
v -70.193306 10.354008 0.456946
v -70.362038 10.204538 0.790027
v -70.487419 9.993034 1.087229
v -70.564629 9.727623 1.337130
v -70.590698 9.418505 1.530128
v -69.662201 10.286049 -0.827472
v -70.074028 10.250587 -0.660627
v -70.453575 10.151319 -0.473914
v -70.786240 9.992062 -0.274507
v -71.059258 9.778934 -0.070070
v -71.262131 9.520128 0.131540
v -71.387054 9.225590 0.322576
v -71.429237 8.906635 0.495697
v -69.662201 10.162615 -1.076920
v -70.074028 10.008461 -1.149937
v -70.453575 9.799807 -1.184281
v -70.786240 9.544672 -1.178633
v -71.059258 9.252859 -1.133209
v -71.262131 8.935585 -1.049757
v -71.387054 8.605042 -0.931481
v -71.429237 8.273930 -0.782929
v -69.498611 10.062754 -1.278728
v -69.753136 9.812576 -1.545796
v -69.987701 9.515427 -1.758980
v -70.193306 9.182725 -1.910085
v -70.362038 8.827255 -1.993307
v -70.487419 8.462680 -2.005446
v -70.564629 8.103007 -1.946036
v -70.590698 7.762061 -1.817359
v -69.233917 8.590282 -0.143616
v -69.233917 10.024611 -1.355811
v -69.233917 7.911247 -2.333561
v -69.233917 7.566544 -2.212477
vt 0.106160 0.251120
vt 0.136157 0.245671
vt 0.160363 0.312886
vt 0.138639 0.326904
vt 0.078519 0.258923
vt 0.118085 0.341120
vt 0.052859 0.268795
vt 0.097901 0.355768
vt 0.029128 0.280273
vt 0.077393 0.371184
vt 0.241195 0.251453
vt 0.277125 0.265928
vt 0.241456 0.273984
vt 0.204014 0.244437
vt 0.210706 0.285718
vt 0.168763 0.243111
vt 0.184070 0.299050
vt 0.217682 0.336757
vt 0.203658 0.357716
vt 0.190599 0.377981
vt 0.177925 0.398085
vt 0.165106 0.418708
vt 0.151730 0.440619
vt 0.252383 0.291109
vt 0.233461 0.314662
vt 0.250799 0.448031
vt 0.248049 0.473581
vt 0.269426 0.299643
vt 0.264935 0.328077
vt 0.261611 0.353738
vt 0.258770 0.377783
vt 0.256119 0.401003
vt 0.253497 0.424136
vt 0.306820 0.348351
vt 0.315394 0.370563
vt 0.323636 0.392148
vt 0.331797 0.413801
vt 0.340208 0.436310
vt 0.349322 0.460459
vt 0.287775 0.298428
vt 0.297689 0.324735
vt 0.414450 0.384656
vt 0.433850 0.401998
vt 0.302790 0.288304
vt 0.324280 0.306169
vt 0.343582 0.322410
vt 0.361642 0.337886
vt 0.379074 0.353102
vt 0.396452 0.368517
vt 0.387021 0.286893
vt 0.409857 0.292140
vt 0.432720 0.297674
vt 0.456463 0.303622
vt 0.482011 0.310030
vt 0.310684 0.271978
vt 0.338450 0.276901
vt 0.363481 0.281836
vt 0.309220 0.253579
vt 0.336416 0.243796
vt 0.361386 0.235777
vt 0.385133 0.228845
vt 0.408334 0.222596
vt 0.431666 0.216718
vt 0.455945 0.210895
vt 0.482011 0.204718
vt 0.373576 0.159609
vt 0.392399 0.143195
vt 0.412079 0.126622
vt 0.433152 0.109107
vt 0.298183 0.237947
vt 0.317612 0.214807
vt 0.336497 0.194717
vt 0.355067 0.176566
vt 0.279572 0.229891
vt 0.284634 0.197753
vt 0.934568 0.737971
vt 0.895014 0.859703
vt 0.727464 0.737971
vt 0.291898 0.168516
vt 0.791463 0.934938
vt 0.663466 0.934938
vt 0.300654 0.141551
vt 0.559914 0.859703
vt 0.310500 0.116238
vt 0.559914 0.616239
vt 0.663466 0.541004
vt 0.321264 0.091879
vt 0.520361 0.737971
vt 0.332947 0.067613
vt 0.345632 0.042262
vt 0.895014 0.616239
vt 0.223867 0.100625
vt 0.224747 0.069579
vt 0.791463 0.541004
vt 0.228714 0.039715
vt 0.235542 0.010772
vt 0.257914 0.233517
vt 0.242962 0.200148
vt 0.232554 0.166279
vt 0.226346 0.132923
vt 0.265656 0.904409
vt 0.260202 0.874421
vt 0.327397 0.850205
vt 0.341417 0.871923
vt 0.273462 0.932042
vt 0.355634 0.892471
vt 0.283337 0.957693
vt 0.370281 0.912648
vt 0.294815 0.981415
vt 0.385697 0.933151
vt 0.265955 0.769401
vt 0.280417 0.733470
vt 0.288484 0.769133
vt 0.258951 0.806578
vt 0.300223 0.799877
vt 0.257634 0.841822
vt 0.313559 0.826506
vt 0.351254 0.792891
vt 0.372213 0.806910
vt 0.392478 0.819964
vt 0.412581 0.832634
vt 0.433203 0.845448
vt 0.455112 0.858820
vt 0.305603 0.758203
vt 0.329158 0.777118
vt 0.462511 0.759762
vt 0.488059 0.762508
vt 0.314133 0.741159
vt 0.342566 0.745645
vt 0.368225 0.748964
vt 0.392269 0.751801
vt 0.415487 0.754448
vt 0.438618 0.757067
vt 0.362832 0.703758
vt 0.385041 0.695182
vt 0.406624 0.686938
vt 0.428275 0.678775
vt 0.450781 0.670363
vt 0.474927 0.661248
vt 0.312914 0.722811
vt 0.339219 0.712892
vt 0.399126 0.596131
vt 0.416466 0.576731
vt 0.302786 0.707798
vt 0.320649 0.686305
vt 0.336887 0.667001
vt 0.352361 0.648940
vt 0.367575 0.631507
vt 0.382988 0.614129
vt 0.301364 0.623565
vt 0.306611 0.600727
vt 0.312143 0.577864
vt 0.318091 0.554120
vt 0.324499 0.528571
vt 0.286459 0.699908
vt 0.291378 0.672139
vt 0.296310 0.647106
vt 0.268059 0.701374
vt 0.258271 0.674178
vt 0.250248 0.649206
vt 0.243313 0.625458
vt 0.237061 0.602255
vt 0.231181 0.578921
vt 0.225357 0.554640
vt 0.219178 0.528571
vt 0.174068 0.637023
vt 0.157650 0.618197
vt 0.141073 0.598515
vt 0.123553 0.577440
vt 0.252427 0.712416
vt 0.229281 0.692988
vt 0.209186 0.674102
vt 0.191030 0.655533
vt 0.244374 0.731031
vt 0.212230 0.725973
vt 0.912693 0.396287
vt 0.809142 0.471522
vt 0.745143 0.274555
vt 0.182987 0.718712
vt 0.681145 0.471522
vt 0.577593 0.396287
vt 0.156016 0.709958
vt 0.538040 0.274555
vt 0.130698 0.700114
vt 0.681145 0.077588
vt 0.809142 0.077588
vt 0.106333 0.689350
vt 0.577593 0.152822
vt 0.082061 0.677668
vt 0.056704 0.664983
vt 0.952246 0.274555
vt 0.115093 0.786764
vt 0.084040 0.785888
vt 0.912693 0.152823
vt 0.054171 0.781924
vt 0.025222 0.775097
vt 0.248005 0.752691
vt 0.214632 0.767652
vt 0.180758 0.778066
vt 0.147396 0.784281
vn -0.2547 -0.5914 -0.7651
vn -0.3029 -0.4139 -0.8585
vn -0.3398 -0.2066 -0.9175
vn -0.3610 0.0196 -0.9324
vn -0.0201 -0.9742 -0.2248
vn -0.0808 -0.9242 -0.3732
vn -0.1410 -0.8453 -0.5154
vn -0.1996 -0.7351 -0.6479
vn -0.4722 -0.7712 -0.4270
vn -0.5977 -0.6368 -0.4872
vn -0.7068 -0.4673 -0.5312
vn -0.7895 -0.2661 -0.5531
vn -0.8354 -0.0431 -0.5479
vn -0.0598 -0.9795 -0.1926
vn -0.1996 -0.9399 -0.2769
vn -0.3380 -0.8713 -0.3558
vn -0.9903 -0.1330 0.0393
vn -0.0727 -0.9870 -0.1435
vn -0.2384 -0.9624 -0.1299
vn -0.4022 -0.9087 -0.1120
vn -0.5612 -0.8228 -0.0897
vn -0.7096 -0.7018 -0.0627
vn -0.8386 -0.5438 -0.0313
vn -0.9363 -0.3513 0.0034
vn -0.4326 -0.8703 0.2353
vn -0.5478 -0.7616 0.3462
vn -0.6481 -0.6142 0.4502
vn -0.7241 -0.4297 0.5394
vn -0.7665 -0.2158 0.6049
vn -0.0540 -0.9939 -0.0961
vn -0.1823 -0.9832 0.0118
vn -0.3093 -0.9430 0.1228
vn -0.2494 -0.2597 0.9329
vn -0.0108 -0.9976 -0.0687
vn -0.0528 -0.9942 0.0939
vn -0.0947 -0.9612 0.2589
vn -0.1356 -0.8956 0.4237
vn -0.1740 -0.7934 0.5833
vn -0.2079 -0.6517 0.7295
vn -0.2341 -0.4714 0.8503
vn 0.2690 -0.7850 0.5581
vn 0.3138 -0.6418 0.6997
vn 0.3467 -0.4604 0.8172
vn 0.3634 -0.2481 0.8980
vn 0.0405 -0.9966 -0.0716
vn 0.1006 -0.9913 0.0852
vn 0.1597 -0.9564 0.2444
vn 0.2165 -0.8889 0.4037
vn 0.2195 -0.9756 -0.0111
vn 0.3566 -0.9304 0.0848
vn 0.4891 -0.8529 0.1828
vn 0.6119 -0.7396 0.2802
vn 0.7177 -0.5884 0.3724
vn 0.7964 -0.4009 0.4528
vn 0.8378 -0.1854 0.5135
vn 0.0802 -0.9914 -0.1038
vn 0.8496 -0.5119 -0.1275
vn 0.9432 -0.3157 -0.1037
vn 0.9927 -0.0955 -0.0737
vn 0.0932 -0.9838 -0.1529
vn 0.2583 -0.9530 -0.1582
vn 0.4209 -0.8931 -0.1589
vn 0.5781 -0.8012 -0.1546
vn 0.7239 -0.6746 -0.1443
vn 0.2022 -0.9323 -0.2998
vn -0.0103 0.9888 0.1487
vn 0.3280 -0.8587 -0.3937
vn 0.4495 -0.7537 -0.4795
vn 0.5621 -0.6148 -0.5532
vn 0.6590 -0.4414 -0.6090
vn 0.7310 -0.2373 -0.6398
vn 0.7689 -0.0127 -0.6393
vn 0.0745 -0.9769 -0.2002
vn 0.2188 -0.4040 -0.8882
vn 0.2410 -0.1956 -0.9506
vn 0.2518 0.0312 -0.9673
vn 0.0312 -0.9732 -0.2277
vn 0.0727 -0.9213 -0.3820
vn 0.1134 -0.8405 -0.5299
vn 0.1524 -0.7284 -0.6679
vn 0.1883 -0.5830 -0.7903
vn 0.2219 0.3209 -0.9208
vn 0.2613 0.1218 -0.9575
vn 0.2909 -0.0948 -0.9520
vn 0.3069 -0.3154 -0.8979
vn 0.0257 0.8581 -0.5128
vn 0.0769 0.7632 -0.6416
vn 0.1274 0.6426 -0.7555
vn 0.1763 0.4953 -0.8506
vn 0.4617 0.5872 -0.6648
vn 0.5809 0.4366 -0.6870
vn 0.6841 0.2580 -0.6822
vn 0.7616 0.0569 -0.6455
vn 0.8036 -0.1554 -0.5745
vn 0.0672 0.8715 -0.4858
vn 0.2013 0.8032 -0.5606
vn 0.3336 0.7090 -0.6213
vn 0.9933 0.1036 -0.0512
vn 0.0831 0.8932 -0.4420
vn 0.2488 0.8681 -0.4296
vn 0.4123 0.8165 -0.4040
vn 0.5707 0.7360 -0.3642
vn 0.7181 0.6238 -0.3087
vn 0.8456 0.4784 -0.2367
vn 0.9414 0.3023 -0.1496
vn 0.4617 0.8848 -0.0636
vn 0.5809 0.8110 0.0696
vn 0.6841 0.6989 0.2087
vn 0.7616 0.5477 0.3464
vn 0.8036 0.3625 0.4721
vn 0.0672 0.9148 -0.3982
vn 0.2013 0.9330 -0.2985
vn 0.3336 0.9240 -0.1868
vn 0.3069 0.5225 0.7955
vn 0.0257 0.9282 -0.3711
vn 0.0769 0.9730 -0.2175
vn 0.1274 0.9905 -0.0526
vn 0.1763 0.9767 0.1222
vn 0.2219 0.9267 0.3034
vn 0.2613 0.8351 0.4841
vn 0.2909 0.6994 0.6529
vn -0.2219 0.9267 0.3034
vn -0.2613 0.8351 0.4841
vn -0.2909 0.6994 0.6529
vn -0.3069 0.5225 0.7955
vn -0.0257 0.9282 -0.3711
vn -0.0769 0.9730 -0.2175
vn -0.1274 0.9905 -0.0526
vn -0.1763 0.9767 0.1222
vn -0.2013 0.9329 -0.2985
vn -0.3336 0.9240 -0.1868
vn -0.4617 0.8848 -0.0636
vn -0.5809 0.8110 0.0696
vn -0.6841 0.6989 0.2087
vn -0.7616 0.5477 0.3464
vn -0.8036 0.3625 0.4720
vn -0.0672 0.9148 -0.3982
vn -0.8456 0.4784 -0.2367
vn -0.9414 0.3023 -0.1496
vn -0.9933 0.1036 -0.0512
vn -0.0831 0.8932 -0.4420
vn -0.2488 0.8681 -0.4296
vn -0.4123 0.8165 -0.4040
vn -0.5707 0.7360 -0.3642
vn -0.7181 0.6238 -0.3087
vn -0.2013 0.8032 -0.5606
vn -0.0000 -0.8963 0.4435
vn -0.3336 0.7090 -0.6213
vn -0.4617 0.5872 -0.6648
vn -0.5809 0.4366 -0.6870
vn -0.6841 0.2580 -0.6822
vn -0.7616 0.0569 -0.6455
vn -0.8036 -0.1554 -0.5745
vn -0.0672 0.8715 -0.4857
vn -0.2613 0.1218 -0.9575
vn -0.2909 -0.0948 -0.9520
vn -0.3069 -0.3154 -0.8979
vn -0.0257 0.8581 -0.5128
vn -0.0769 0.7632 -0.6416
vn -0.1274 0.6426 -0.7555
vn -0.1763 0.4953 -0.8506
vn -0.2219 0.3209 -0.9208
usemtl OtherMaterial
s off
f 4/1/1 3/2/1 9/3/1 10/4/1
f 5/5/2 4/1/2 10/4/2 11/6/2
f 81/7/3 5/5/3 11/6/3 12/8/3
f 82/9/4 81/7/4 12/8/4 13/10/4
f 80/11/5 46/12/5 6/13/5
f 1/14/6 80/11/6 6/13/6 7/15/6
f 2/16/7 1/14/7 7/15/7 8/17/7
f 3/2/8 2/16/8 8/17/8 9/3/8
f 9/3/9 8/17/9 16/18/9 17/19/9
f 10/4/10 9/3/10 17/19/10 18/20/10
f 11/6/11 10/4/11 18/20/11 19/21/11
f 12/8/12 11/6/12 19/21/12 20/22/12
f 13/10/13 12/8/13 20/22/13 21/23/13
f 6/13/14 46/12/14 14/24/14
f 7/15/15 6/13/15 14/24/15 15/25/15
f 8/17/16 7/15/16 15/25/16 16/18/16
f 21/23/17 20/22/17 28/26/17 29/27/17
f 14/24/18 46/12/18 22/28/18
f 15/25/19 14/24/19 22/28/19 23/29/19
f 16/18/20 15/25/20 23/29/20 24/30/20
f 17/19/21 16/18/21 24/30/21 25/31/21
f 18/20/22 17/19/22 25/31/22 26/32/22
f 19/21/23 18/20/23 26/32/23 27/33/23
f 20/22/24 19/21/24 27/33/24 28/26/24
f 25/31/25 24/30/25 32/34/25 33/35/25
f 26/32/26 25/31/26 33/35/26 34/36/26
f 27/33/27 26/32/27 34/36/27 35/37/27
f 28/26/28 27/33/28 35/37/28 36/38/28
f 29/27/29 28/26/29 36/38/29 37/39/29
f 22/28/30 46/12/30 30/40/30
f 23/29/31 22/28/31 30/40/31 31/41/31
f 24/30/32 23/29/32 31/41/32 32/34/32
f 37/39/33 36/38/33 44/42/33 45/43/33
f 30/40/34 46/12/34 38/44/34
f 31/41/35 30/40/35 38/44/35 39/45/35
f 32/34/36 31/41/36 39/45/36 40/46/36
f 33/35/37 32/34/37 40/46/37 41/47/37
f 34/36/38 33/35/38 41/47/38 42/48/38
f 35/37/39 34/36/39 42/48/39 43/49/39
f 36/38/40 35/37/40 43/49/40 44/42/40
f 42/48/41 41/47/41 50/50/41 51/51/41
f 43/49/42 42/48/42 51/51/42 52/52/42
f 44/42/43 43/49/43 52/52/43 53/53/43
f 45/43/44 44/42/44 53/53/44 54/54/44
f 38/44/45 46/12/45 47/55/45
f 39/45/46 38/44/46 47/55/46 48/56/46
f 40/46/47 39/45/47 48/56/47 49/57/47
f 41/47/48 40/46/48 49/57/48 50/50/48
f 48/56/49 47/55/49 55/58/49 56/59/49
f 49/57/50 48/56/50 56/59/50 57/60/50
f 50/50/51 49/57/51 57/60/51 58/61/51
f 51/51/52 50/50/52 58/61/52 59/62/52
f 52/52/53 51/51/53 59/62/53 60/63/53
f 53/53/54 52/52/54 60/63/54 61/64/54
f 54/54/55 53/53/55 61/64/55 62/65/55
f 47/55/56 46/12/56 55/58/56
f 60/63/57 59/62/57 67/66/57 68/67/57
f 61/64/58 60/63/58 68/67/58 69/68/58
f 62/65/59 61/64/59 69/68/59 70/69/59
f 55/58/60 46/12/60 63/70/60
f 56/59/61 55/58/61 63/70/61 64/71/61
f 57/60/62 56/59/62 64/71/62 65/72/62
f 58/61/63 57/60/63 65/72/63 66/73/63
f 59/62/64 58/61/64 66/73/64 67/66/64
f 64/71/65 63/70/65 71/74/65 72/75/65
f 37/76/66 45/77/66 79/78/66
f 65/72/67 64/71/67 72/75/67 73/79/67
f 54/80/66 62/81/66 79/78/66
f 66/73/68 65/72/68 73/79/68 74/82/68
f 62/81/66 70/83/66 79/78/66
f 67/66/69 66/73/69 74/82/69 75/84/69
f 82/85/66 13/86/66 79/78/66
f 68/67/70 67/66/70 75/84/70 76/87/70
f 70/83/66 78/88/66 79/78/66
f 69/68/71 68/67/71 76/87/71 77/89/71
f 45/77/66 54/80/66 79/78/66
f 70/69/72 69/68/72 77/89/72 78/90/72
f 63/70/73 46/12/73 71/74/73
f 29/91/66 37/76/66 79/78/66
f 76/87/74 75/84/74 4/92/74 5/93/74
f 21/94/66 29/91/66 79/78/66
f 77/89/75 76/87/75 5/93/75 81/95/75
f 78/88/66 82/85/66 79/78/66
f 78/90/76 77/89/76 81/95/76 82/96/76
f 71/74/77 46/12/77 80/97/77
f 72/75/78 71/74/78 80/97/78 1/98/78
f 73/79/79 72/75/79 1/98/79 2/99/79
f 13/86/66 21/94/66 79/78/66
f 74/82/80 73/79/80 2/99/80 3/100/80
f 75/84/81 74/82/81 3/100/81 4/92/81
f 86/101/82 85/102/82 91/103/82 92/104/82
f 87/105/83 86/101/83 92/104/83 93/106/83
f 163/107/84 87/105/84 93/106/84 94/108/84
f 164/109/85 163/107/85 94/108/85 95/110/85
f 162/111/86 128/112/86 88/113/86
f 83/114/87 162/111/87 88/113/87 89/115/87
f 84/116/88 83/114/88 89/115/88 90/117/88
f 85/102/89 84/116/89 90/117/89 91/103/89
f 91/103/90 90/117/90 98/118/90 99/119/90
f 92/104/91 91/103/91 99/119/91 100/120/91
f 93/106/92 92/104/92 100/120/92 101/121/92
f 94/108/93 93/106/93 101/121/93 102/122/93
f 95/110/94 94/108/94 102/122/94 103/123/94
f 88/113/95 128/112/95 96/124/95
f 89/115/96 88/113/96 96/124/96 97/125/96
f 90/117/97 89/115/97 97/125/97 98/118/97
f 103/123/98 102/122/98 110/126/98 111/127/98
f 96/124/99 128/112/99 104/128/99
f 97/125/100 96/124/100 104/128/100 105/129/100
f 98/118/101 97/125/101 105/129/101 106/130/101
f 99/119/102 98/118/102 106/130/102 107/131/102
f 100/120/103 99/119/103 107/131/103 108/132/103
f 101/121/104 100/120/104 108/132/104 109/133/104
f 102/122/105 101/121/105 109/133/105 110/126/105
f 107/131/106 106/130/106 114/134/106 115/135/106
f 108/132/107 107/131/107 115/135/107 116/136/107
f 109/133/108 108/132/108 116/136/108 117/137/108
f 110/126/109 109/133/109 117/137/109 118/138/109
f 111/127/110 110/126/110 118/138/110 119/139/110
f 104/128/111 128/112/111 112/140/111
f 105/129/112 104/128/112 112/140/112 113/141/112
f 106/130/113 105/129/113 113/141/113 114/134/113
f 119/139/114 118/138/114 126/142/114 127/143/114
f 112/140/115 128/112/115 120/144/115
f 113/141/116 112/140/116 120/144/116 121/145/116
f 114/134/117 113/141/117 121/145/117 122/146/117
f 115/135/118 114/134/118 122/146/118 123/147/118
f 116/136/119 115/135/119 123/147/119 124/148/119
f 117/137/120 116/136/120 124/148/120 125/149/120
f 118/138/121 117/137/121 125/149/121 126/142/121
f 124/148/122 123/147/122 132/150/122 133/151/122
f 125/149/123 124/148/123 133/151/123 134/152/123
f 126/142/124 125/149/124 134/152/124 135/153/124
f 127/143/125 126/142/125 135/153/125 136/154/125
f 120/144/126 128/112/126 129/155/126
f 121/145/127 120/144/127 129/155/127 130/156/127
f 122/146/128 121/145/128 130/156/128 131/157/128
f 123/147/129 122/146/129 131/157/129 132/150/129
f 130/156/130 129/155/130 137/158/130 138/159/130
f 131/157/131 130/156/131 138/159/131 139/160/131
f 132/150/132 131/157/132 139/160/132 140/161/132
f 133/151/133 132/150/133 140/161/133 141/162/133
f 134/152/134 133/151/134 141/162/134 142/163/134
f 135/153/135 134/152/135 142/163/135 143/164/135
f 136/154/136 135/153/136 143/164/136 144/165/136
f 129/155/137 128/112/137 137/158/137
f 142/163/138 141/162/138 149/166/138 150/167/138
f 143/164/139 142/163/139 150/167/139 151/168/139
f 144/165/140 143/164/140 151/168/140 152/169/140
f 137/158/141 128/112/141 145/170/141
f 138/159/142 137/158/142 145/170/142 146/171/142
f 139/160/143 138/159/143 146/171/143 147/172/143
f 140/161/144 139/160/144 147/172/144 148/173/144
f 141/162/145 140/161/145 148/173/145 149/166/145
f 146/171/146 145/170/146 153/174/146 154/175/146
f 119/176/147 127/177/147 161/178/147
f 147/172/148 146/171/148 154/175/148 155/179/148
f 136/180/147 144/181/147 161/178/147
f 148/173/149 147/172/149 155/179/149 156/182/149
f 144/181/147 152/183/147 161/178/147
f 149/166/150 148/173/150 156/182/150 157/184/150
f 164/185/147 95/186/147 161/178/147
f 150/167/151 149/166/151 157/184/151 158/187/151
f 152/183/147 160/188/147 161/178/147
f 151/168/152 150/167/152 158/187/152 159/189/152
f 127/177/147 136/180/147 161/178/147
f 152/169/153 151/168/153 159/189/153 160/190/153
f 145/170/154 128/112/154 153/174/154
f 111/191/147 119/176/147 161/178/147
f 158/187/155 157/184/155 86/192/155 87/193/155
f 103/194/147 111/191/147 161/178/147
f 159/189/156 158/187/156 87/193/156 163/195/156
f 160/188/147 164/185/147 161/178/147
f 160/190/157 159/189/157 163/195/157 164/196/157
f 153/174/158 128/112/158 162/197/158
f 154/175/159 153/174/159 162/197/159 83/198/159
f 155/179/160 154/175/160 83/198/160 84/199/160
f 95/186/147 103/194/147 161/178/147
f 156/182/161 155/179/161 84/199/161 85/200/161
f 157/184/162 156/182/162 85/200/162 86/192/162
