# Blender v2.79 (sub 0) OBJ File: 'Holy Burger.blend'
# www.blender.org
mtllib Floor.mtl
o Cube.004_Cube.031
v -23.103046 3.366891 43.718788
v -23.103046 3.399646 -63.839127
v -23.103046 0.328106 43.717865
v -23.103046 0.360861 -63.840050
v 72.854446 3.366891 43.718788
v 72.854446 3.399646 -63.839127
v 72.854446 0.328106 43.717865
v 72.854446 0.360861 -63.840050
vt 0.294089 0.850374
vt 0.294089 0.556377
vt 0.500000 0.556377
vt 0.500000 0.850374
vt 0.793997 0.556377
vt 0.500000 0.294089
vt 0.793997 0.294089
vt 0.500000 0.000092
vt 0.294089 0.294089
vt 0.294089 0.000092
vt 0.000092 0.294089
vt 0.000092 0.556377
vt 0.999908 0.294089
vt 0.999908 0.556377
vn -1.0000 0.0000 0.0000
vn 0.0000 -1.0000 -0.0003
vn 1.0000 0.0000 0.0000
vn 0.0000 1.0000 0.0003
vn 0.0000 -0.0003 1.0000
vn 0.0000 0.0003 -1.0000
usemtl AMaterial.006
s off
f 1/1/1 2/2/1 4/3/1 3/4/1
f 3/5/2 4/3/2 8/6/2 7/7/2
f 7/8/3 8/6/3 6/9/3 5/10/3
f 5/11/4 6/9/4 2/2/4 1/12/4
f 3/5/5 7/7/5 5/13/5 1/14/5
f 8/6/6 4/3/6 2/2/6 6/9/6
